<svg xmlns="http://www.w3.org/2000/svg" viewBox="0 0 880 552" role="img" aria-label="Clarke 与 Park 变换的波形">
  <style>
    .bg{fill:#ffffff}
    .ax{stroke:#9aa5b1;stroke-width:1.1}
    .gd{stroke:#eceff2;stroke-width:1}
    .t {font-family:'Fira Sans','Noto Sans SC','PingFang SC','Microsoft YaHei',sans-serif;font-size:13.5px;fill:#1f2933;text-anchor:middle}
    .hd{font-family:'Fira Sans','Noto Sans SC','PingFang SC','Microsoft YaHei',sans-serif;font-size:12.5px;fill:#1f2933;text-anchor:start}
    .ts{font-family:'Fira Sans','Noto Sans SC','PingFang SC','Microsoft YaHei',sans-serif;font-size:10.5px;fill:#7b8794;text-anchor:start}
    .tc{font-family:'Fira Sans','Noto Sans SC','PingFang SC','Microsoft YaHei',sans-serif;font-size:11px;fill:#52606d;text-anchor:middle}
    .tk{font-family:'Fira Sans','Noto Sans SC','PingFang SC','Microsoft YaHei',sans-serif;font-size:10px;fill:#7b8794;text-anchor:end}
    .lg{font-family:'Fira Mono',monospace;font-size:10.5px;text-anchor:start}
  </style>
  <rect class="bg" x="0" y="0" width="880" height="552"/>
  <text class="t" x="440" y="30">FOC 的两次坐标变换：三相正弦量如何变成两个可直接用 PI 控制的直流量</text>
  <text class="hd" x="104" y="80">三相电流  ia, ib, ic</text>
  <line class="ax" x1="104" y1="129.0" x2="690" y2="129.0"/>
  <line class="ax" x1="104" y1="168" x2="104" y2="90"/>
  <text class="tk" x="96" y="94.0">+5</text>
  <text class="tk" x="96" y="172">-5</text>
  <line class="gd" x1="104.0" y1="168" x2="104.0" y2="90"/>
  <line class="gd" x1="250.5" y1="168" x2="250.5" y2="90"/>
  <line class="gd" x1="397.0" y1="168" x2="397.0" y2="90"/>
  <line class="gd" x1="543.5" y1="168" x2="543.5" y2="90"/>
  <line class="gd" x1="690.0" y1="168" x2="690.0" y2="90"/>
  <path d="M104.0,129.0 L104.7,129.5 L105.5,130.0 L106.2,130.5 L106.9,131.0 L107.7,131.5 L108.4,131.9 L109.1,132.4 L109.9,132.9 L110.6,133.4 L111.3,133.9 L112.1,134.4 L112.8,134.9 L113.5,135.3 L114.3,135.8 L115.0,136.3 L115.7,136.8 L116.5,137.2 L117.2,137.7 L117.9,138.2 L118.7,138.7 L119.4,139.1 L120.1,139.6 L120.9,140.0 L121.6,140.5 L122.3,141.0 L123.1,141.4 L123.8,141.9 L124.5,142.3 L125.3,142.7 L126.0,143.2 L126.7,143.6 L127.5,144.0 L128.2,144.5 L128.9,144.9 L129.7,145.3 L130.4,145.7 L131.1,146.1 L131.9,146.6 L132.6,147.0 L133.3,147.4 L134.1,147.8 L134.8,148.1 L135.5,148.5 L136.3,148.9 L137.0,149.3 L137.7,149.7 L138.5,150.0 L139.2,150.4 L139.9,150.7 L140.7,151.1 L141.4,151.4 L142.1,151.8 L142.9,152.1 L143.6,152.4 L144.3,152.7 L145.1,153.1 L145.8,153.4 L146.5,153.7 L147.3,154.0 L148.0,154.3 L148.7,154.5 L149.5,154.8 L150.2,155.1 L150.9,155.4 L151.7,155.6 L152.4,155.9 L153.1,156.1 L153.9,156.4 L154.6,156.6 L155.3,156.8 L156.1,157.0 L156.8,157.2 L157.5,157.5 L158.3,157.7 L159.0,157.8 L159.7,158.0 L160.5,158.2 L161.2,158.4 L161.9,158.5 L162.7,158.7 L163.4,158.8 L164.1,159.0 L164.9,159.1 L165.6,159.2 L166.3,159.4 L167.1,159.5 L167.8,159.6 L168.5,159.7 L169.3,159.7 L170.0,159.8 L170.7,159.9 L171.5,160.0 L172.2,160.0 L172.9,160.1 L173.7,160.1 L174.4,160.1 L175.1,160.2 L175.9,160.2 L176.6,160.2 L177.3,160.2 L178.1,160.2 L178.8,160.2 L179.5,160.2 L180.3,160.1 L181.0,160.1 L181.7,160.1 L182.5,160.0 L183.2,159.9 L183.9,159.9 L184.7,159.8 L185.4,159.7 L186.1,159.6 L186.9,159.5 L187.6,159.4 L188.3,159.3 L189.1,159.2 L189.8,159.1 L190.5,158.9 L191.3,158.8 L192.0,158.7 L192.7,158.5 L193.5,158.3 L194.2,158.2 L194.9,158.0 L195.7,157.8 L196.4,157.6 L197.1,157.4 L197.9,157.2 L198.6,157.0 L199.3,156.8 L200.1,156.5 L200.8,156.3 L201.5,156.1 L202.3,155.8 L203.0,155.6 L203.7,155.3 L204.5,155.0 L205.2,154.8 L205.9,154.5 L206.7,154.2 L207.4,153.9 L208.1,153.6 L208.9,153.3 L209.6,153.0 L210.3,152.7 L211.1,152.3 L211.8,152.0 L212.5,151.7 L213.3,151.3 L214.0,151.0 L214.7,150.6 L215.5,150.3 L216.2,149.9 L216.9,149.6 L217.7,149.2 L218.4,148.8 L219.1,148.4 L219.9,148.0 L220.6,147.7 L221.3,147.3 L222.1,146.9 L222.8,146.5 L223.5,146.0 L224.3,145.6 L225.0,145.2 L225.7,144.8 L226.5,144.4 L227.2,143.9 L227.9,143.5 L228.7,143.1 L229.4,142.6 L230.1,142.2 L230.9,141.7 L231.6,141.3 L232.3,140.8 L233.1,140.4 L233.8,139.9 L234.5,139.5 L235.3,139.0 L236.0,138.5 L236.7,138.1 L237.5,137.6 L238.2,137.1 L238.9,136.6 L239.7,136.2 L240.4,135.7 L241.1,135.2 L241.9,134.7 L242.6,134.2 L243.3,133.8 L244.1,133.3 L244.8,132.8 L245.5,132.3 L246.3,131.8 L247.0,131.3 L247.7,130.8 L248.5,130.3 L249.2,129.9 L249.9,129.4 L250.7,128.9 L251.4,128.4 L252.2,127.9 L252.9,127.4 L253.6,126.9 L254.4,126.4 L255.1,125.9 L255.8,125.5 L256.6,125.0 L257.3,124.5 L258.0,124.0 L258.8,123.5 L259.5,123.0 L260.2,122.5 L261.0,122.1 L261.7,121.6 L262.4,121.1 L263.2,120.6 L263.9,120.2 L264.6,119.7 L265.4,119.2 L266.1,118.8 L266.8,118.3 L267.6,117.8 L268.3,117.4 L269.0,116.9 L269.8,116.5 L270.5,116.0 L271.2,115.6 L272.0,115.1 L272.7,114.7 L273.4,114.3 L274.2,113.8 L274.9,113.4 L275.6,113.0 L276.4,112.6 L277.1,112.2 L277.8,111.7 L278.6,111.3 L279.3,110.9 L280.0,110.5 L280.8,110.1 L281.5,109.8 L282.2,109.4 L283.0,109.0 L283.7,108.6 L284.4,108.3 L285.2,107.9 L285.9,107.5 L286.6,107.2 L287.4,106.8 L288.1,106.5 L288.8,106.2 L289.6,105.8 L290.3,105.5 L291.0,105.2 L291.8,104.9 L292.5,104.6 L293.2,104.3 L294.0,104.0 L294.7,103.7 L295.4,103.4 L296.2,103.1 L296.9,102.8 L297.6,102.6 L298.4,102.3 L299.1,102.1 L299.8,101.8 L300.6,101.6 L301.3,101.3 L302.0,101.1 L302.8,100.9 L303.5,100.7 L304.2,100.5 L305.0,100.3 L305.7,100.1 L306.4,99.9 L307.2,99.8 L307.9,99.6 L308.6,99.4 L309.4,99.3 L310.1,99.1 L310.8,99.0 L311.6,98.9 L312.3,98.7 L313.0,98.6 L313.8,98.5 L314.5,98.4 L315.2,98.3 L316.0,98.2 L316.7,98.2 L317.4,98.1 L318.2,98.0 L318.9,98.0 L319.6,97.9 L320.4,97.9 L321.1,97.9 L321.8,97.8 L322.6,97.8 L323.3,97.8 L324.0,97.8 L324.8,97.8 L325.5,97.8 L326.2,97.8 L327.0,97.9 L327.7,97.9 L328.4,98.0 L329.2,98.0 L329.9,98.1 L330.6,98.1 L331.4,98.2 L332.1,98.3 L332.8,98.4 L333.6,98.5 L334.3,98.6 L335.0,98.7 L335.8,98.8 L336.5,99.0 L337.2,99.1 L338.0,99.2 L338.7,99.4 L339.4,99.5 L340.2,99.7 L340.9,99.9 L341.6,100.1 L342.4,100.3 L343.1,100.4 L343.8,100.6 L344.6,100.9 L345.3,101.1 L346.0,101.3 L346.8,101.5 L347.5,101.8 L348.2,102.0 L349.0,102.2 L349.7,102.5 L350.4,102.8 L351.2,103.0 L351.9,103.3 L352.6,103.6 L353.4,103.9 L354.1,104.2 L354.8,104.5 L355.6,104.8 L356.3,105.1 L357.0,105.4 L357.8,105.7 L358.5,106.1 L359.2,106.4 L360.0,106.7 L360.7,107.1 L361.4,107.4 L362.2,107.8 L362.9,108.2 L363.6,108.5 L364.4,108.9 L365.1,109.3 L365.8,109.7 L366.6,110.1 L367.3,110.4 L368.0,110.8 L368.8,111.2 L369.5,111.6 L370.2,112.1 L371.0,112.5 L371.7,112.9 L372.4,113.3 L373.2,113.7 L373.9,114.2 L374.6,114.6 L375.4,115.0 L376.1,115.5 L376.8,115.9 L377.6,116.4 L378.3,116.8 L379.0,117.3 L379.8,117.7 L380.5,118.2 L381.2,118.6 L382.0,119.1 L382.7,119.6 L383.4,120.0 L384.2,120.5 L384.9,121.0 L385.6,121.5 L386.4,121.9 L387.1,122.4 L387.8,122.9 L388.6,123.4 L389.3,123.9 L390.0,124.4 L390.8,124.8 L391.5,125.3 L392.2,125.8 L393.0,126.3 L393.7,126.8 L394.4,127.3 L395.2,127.8 L395.9,128.3 L396.6,128.8 L397.4,129.2 L398.1,129.7 L398.8,130.2 L399.6,130.7 L400.3,131.2 L401.0,131.7 L401.8,132.2 L402.5,132.7 L403.2,133.2 L404.0,133.6 L404.7,134.1 L405.4,134.6 L406.2,135.1 L406.9,135.6 L407.6,136.1 L408.4,136.5 L409.1,137.0 L409.8,137.5 L410.6,138.0 L411.3,138.4 L412.0,138.9 L412.8,139.4 L413.5,139.8 L414.2,140.3 L415.0,140.7 L415.7,141.2 L416.4,141.6 L417.2,142.1 L417.9,142.5 L418.6,143.0 L419.4,143.4 L420.1,143.8 L420.8,144.3 L421.6,144.7 L422.3,145.1 L423.0,145.5 L423.8,145.9 L424.5,146.4 L425.2,146.8 L426.0,147.2 L426.7,147.6 L427.4,147.9 L428.2,148.3 L428.9,148.7 L429.6,149.1 L430.4,149.5 L431.1,149.8 L431.8,150.2 L432.6,150.6 L433.3,150.9 L434.0,151.3 L434.8,151.6 L435.5,151.9 L436.2,152.3 L437.0,152.6 L437.7,152.9 L438.4,153.2 L439.2,153.5 L439.9,153.8 L440.6,154.1 L441.4,154.4 L442.1,154.7 L442.8,155.0 L443.6,155.2 L444.3,155.5 L445.0,155.8 L445.8,156.0 L446.5,156.2 L447.2,156.5 L448.0,156.7 L448.7,156.9 L449.4,157.1 L450.2,157.4 L450.9,157.6 L451.6,157.7 L452.4,157.9 L453.1,158.1 L453.8,158.3 L454.6,158.5 L455.3,158.6 L456.0,158.8 L456.8,158.9 L457.5,159.0 L458.2,159.2 L459.0,159.3 L459.7,159.4 L460.4,159.5 L461.2,159.6 L461.9,159.7 L462.6,159.8 L463.4,159.9 L464.1,159.9 L464.8,160.0 L465.6,160.0 L466.3,160.1 L467.0,160.1 L467.8,160.2 L468.5,160.2 L469.2,160.2 L470.0,160.2 L470.7,160.2 L471.4,160.2 L472.2,160.2 L472.9,160.1 L473.6,160.1 L474.4,160.1 L475.1,160.0 L475.8,160.0 L476.6,159.9 L477.3,159.8 L478.0,159.8 L478.8,159.7 L479.5,159.6 L480.2,159.5 L481.0,159.4 L481.7,159.3 L482.4,159.1 L483.2,159.0 L483.9,158.9 L484.6,158.7 L485.4,158.6 L486.1,158.4 L486.8,158.2 L487.6,158.1 L488.3,157.9 L489.0,157.7 L489.8,157.5 L490.5,157.3 L491.2,157.1 L492.0,156.9 L492.7,156.7 L493.4,156.4 L494.2,156.2 L494.9,155.9 L495.6,155.7 L496.4,155.4 L497.1,155.2 L497.8,154.9 L498.6,154.6 L499.3,154.3 L500.0,154.0 L500.8,153.7 L501.5,153.4 L502.2,153.1 L503.0,152.8 L503.7,152.5 L504.4,152.2 L505.2,151.8 L505.9,151.5 L506.6,151.2 L507.4,150.8 L508.1,150.5 L508.8,150.1 L509.6,149.7 L510.3,149.4 L511.0,149.0 L511.8,148.6 L512.5,148.2 L513.2,147.9 L514.0,147.5 L514.7,147.1 L515.4,146.7 L516.2,146.3 L516.9,145.8 L517.6,145.4 L518.4,145.0 L519.1,144.6 L519.8,144.2 L520.6,143.7 L521.3,143.3 L522.0,142.9 L522.8,142.4 L523.5,142.0 L524.2,141.5 L525.0,141.1 L525.7,140.6 L526.4,140.2 L527.2,139.7 L527.9,139.2 L528.6,138.8 L529.4,138.3 L530.1,137.8 L530.8,137.4 L531.6,136.9 L532.3,136.4 L533.0,135.9 L533.8,135.5 L534.5,135.0 L535.2,134.5 L536.0,134.0 L536.7,133.5 L537.4,133.0 L538.2,132.5 L538.9,132.1 L539.6,131.6 L540.4,131.1 L541.1,130.6 L541.8,130.1 L542.6,129.6 L543.3,129.1 L544.1,128.6 L544.8,128.1 L545.5,127.7 L546.3,127.2 L547.0,126.7 L547.7,126.2 L548.5,125.7 L549.2,125.2 L549.9,124.7 L550.7,124.2 L551.4,123.8 L552.1,123.3 L552.9,122.8 L553.6,122.3 L554.3,121.8 L555.1,121.4 L555.8,120.9 L556.5,120.4 L557.3,119.9 L558.0,119.5 L558.7,119.0 L559.5,118.5 L560.2,118.1 L560.9,117.6 L561.7,117.2 L562.4,116.7 L563.1,116.3 L563.9,115.8 L564.6,115.4 L565.3,114.9 L566.1,114.5 L566.8,114.1 L567.5,113.6 L568.3,113.2 L569.0,112.8 L569.7,112.4 L570.5,112.0 L571.2,111.5 L571.9,111.1 L572.7,110.7 L573.4,110.3 L574.1,110.0 L574.9,109.6 L575.6,109.2 L576.3,108.8 L577.1,108.4 L577.8,108.1 L578.5,107.7 L579.3,107.4 L580.0,107.0 L580.7,106.7 L581.5,106.3 L582.2,106.0 L582.9,105.7 L583.7,105.3 L584.4,105.0 L585.1,104.7 L585.9,104.4 L586.6,104.1 L587.3,103.8 L588.1,103.5 L588.8,103.2 L589.5,103.0 L590.3,102.7 L591.0,102.4 L591.7,102.2 L592.5,101.9 L593.2,101.7 L593.9,101.5 L594.7,101.2 L595.4,101.0 L596.1,100.8 L596.9,100.6 L597.6,100.4 L598.3,100.2 L599.1,100.0 L599.8,99.8 L600.5,99.7 L601.3,99.5 L602.0,99.3 L602.7,99.2 L603.5,99.1 L604.2,98.9 L604.9,98.8 L605.7,98.7 L606.4,98.6 L607.1,98.5 L607.9,98.4 L608.6,98.3 L609.3,98.2 L610.1,98.1 L610.8,98.1 L611.5,98.0 L612.3,97.9 L613.0,97.9 L613.7,97.9 L614.5,97.8 L615.2,97.8 L615.9,97.8 L616.7,97.8 L617.4,97.8 L618.1,97.8 L618.9,97.8 L619.6,97.9 L620.3,97.9 L621.1,97.9 L621.8,98.0 L622.5,98.0 L623.3,98.1 L624.0,98.2 L624.7,98.3 L625.5,98.3 L626.2,98.4 L626.9,98.5 L627.7,98.6 L628.4,98.8 L629.1,98.9 L629.9,99.0 L630.6,99.2 L631.3,99.3 L632.1,99.5 L632.8,99.6 L633.5,99.8 L634.3,100.0 L635.0,100.2 L635.7,100.3 L636.5,100.5 L637.2,100.8 L637.9,101.0 L638.7,101.2 L639.4,101.4 L640.1,101.6 L640.9,101.9 L641.6,102.1 L642.3,102.4 L643.1,102.6 L643.8,102.9 L644.5,103.2 L645.3,103.5 L646.0,103.7 L646.7,104.0 L647.5,104.3 L648.2,104.6 L648.9,104.9 L649.7,105.3 L650.4,105.6 L651.1,105.9 L651.9,106.2 L652.6,106.6 L653.3,106.9 L654.1,107.3 L654.8,107.6 L655.5,108.0 L656.3,108.3 L657.0,108.7 L657.7,109.1 L658.5,109.5 L659.2,109.9 L659.9,110.2 L660.7,110.6 L661.4,111.0 L662.1,111.4 L662.9,111.9 L663.6,112.3 L664.3,112.7 L665.1,113.1 L665.8,113.5 L666.5,114.0 L667.3,114.4 L668.0,114.8 L668.7,115.3 L669.5,115.7 L670.2,116.1 L670.9,116.6 L671.7,117.0 L672.4,117.5 L673.1,118.0 L673.9,118.4 L674.6,118.9 L675.3,119.3 L676.1,119.8 L676.8,120.3 L677.5,120.8 L678.3,121.2 L679.0,121.7 L679.7,122.2 L680.5,122.7 L681.2,123.1 L681.9,123.6 L682.7,124.1 L683.4,124.6 L684.1,125.1 L684.9,125.6 L685.6,126.1 L686.3,126.5 L687.1,127.0 L687.8,127.5 L688.5,128.0 L689.3,128.5 L690.0,129.0" fill="none" stroke="#c0392b" stroke-width="2"/>
  <path d="M104.0,102.0 L104.7,101.7 L105.5,101.5 L106.2,101.3 L106.9,101.1 L107.7,100.8 L108.4,100.6 L109.1,100.4 L109.9,100.2 L110.6,100.0 L111.3,99.9 L112.1,99.7 L112.8,99.5 L113.5,99.4 L114.3,99.2 L115.0,99.1 L115.7,98.9 L116.5,98.8 L117.2,98.7 L117.9,98.6 L118.7,98.5 L119.4,98.4 L120.1,98.3 L120.9,98.2 L121.6,98.1 L122.3,98.1 L123.1,98.0 L123.8,98.0 L124.5,97.9 L125.3,97.9 L126.0,97.8 L126.7,97.8 L127.5,97.8 L128.2,97.8 L128.9,97.8 L129.7,97.8 L130.4,97.8 L131.1,97.9 L131.9,97.9 L132.6,97.9 L133.3,98.0 L134.1,98.0 L134.8,98.1 L135.5,98.2 L136.3,98.2 L137.0,98.3 L137.7,98.4 L138.5,98.5 L139.2,98.6 L139.9,98.7 L140.7,98.9 L141.4,99.0 L142.1,99.1 L142.9,99.3 L143.6,99.4 L144.3,99.6 L145.1,99.8 L145.8,99.9 L146.5,100.1 L147.3,100.3 L148.0,100.5 L148.7,100.7 L149.5,100.9 L150.2,101.1 L150.9,101.4 L151.7,101.6 L152.4,101.8 L153.1,102.1 L153.9,102.3 L154.6,102.6 L155.3,102.9 L156.1,103.1 L156.8,103.4 L157.5,103.7 L158.3,104.0 L159.0,104.3 L159.7,104.6 L160.5,104.9 L161.2,105.2 L161.9,105.5 L162.7,105.8 L163.4,106.2 L164.1,106.5 L164.9,106.9 L165.6,107.2 L166.3,107.6 L167.1,107.9 L167.8,108.3 L168.5,108.7 L169.3,109.0 L170.0,109.4 L170.7,109.8 L171.5,110.2 L172.2,110.6 L172.9,111.0 L173.7,111.4 L174.4,111.8 L175.1,112.2 L175.9,112.6 L176.6,113.0 L177.3,113.5 L178.1,113.9 L178.8,114.3 L179.5,114.7 L180.3,115.2 L181.0,115.6 L181.7,116.1 L182.5,116.5 L183.2,117.0 L183.9,117.4 L184.7,117.9 L185.4,118.3 L186.1,118.8 L186.9,119.3 L187.6,119.7 L188.3,120.2 L189.1,120.7 L189.8,121.2 L190.5,121.6 L191.3,122.1 L192.0,122.6 L192.7,123.1 L193.5,123.5 L194.2,124.0 L194.9,124.5 L195.7,125.0 L196.4,125.5 L197.1,126.0 L197.9,126.5 L198.6,127.0 L199.3,127.4 L200.1,127.9 L200.8,128.4 L201.5,128.9 L202.3,129.4 L203.0,129.9 L203.7,130.4 L204.5,130.9 L205.2,131.4 L205.9,131.9 L206.7,132.3 L207.4,132.8 L208.1,133.3 L208.9,133.8 L209.6,134.3 L210.3,134.8 L211.1,135.3 L211.8,135.7 L212.5,136.2 L213.3,136.7 L214.0,137.2 L214.7,137.6 L215.5,138.1 L216.2,138.6 L216.9,139.0 L217.7,139.5 L218.4,140.0 L219.1,140.4 L219.9,140.9 L220.6,141.3 L221.3,141.8 L222.1,142.2 L222.8,142.7 L223.5,143.1 L224.3,143.5 L225.0,144.0 L225.7,144.4 L226.5,144.8 L227.2,145.3 L227.9,145.7 L228.7,146.1 L229.4,146.5 L230.1,146.9 L230.9,147.3 L231.6,147.7 L232.3,148.1 L233.1,148.5 L233.8,148.8 L234.5,149.2 L235.3,149.6 L236.0,150.0 L236.7,150.3 L237.5,150.7 L238.2,151.0 L238.9,151.4 L239.7,151.7 L240.4,152.0 L241.1,152.4 L241.9,152.7 L242.6,153.0 L243.3,153.3 L244.1,153.6 L244.8,153.9 L245.5,154.2 L246.3,154.5 L247.0,154.8 L247.7,155.1 L248.5,155.3 L249.2,155.6 L249.9,155.8 L250.7,156.1 L251.4,156.3 L252.2,156.6 L252.9,156.8 L253.6,157.0 L254.4,157.2 L255.1,157.4 L255.8,157.6 L256.6,157.8 L257.3,158.0 L258.0,158.2 L258.8,158.3 L259.5,158.5 L260.2,158.7 L261.0,158.8 L261.7,159.0 L262.4,159.1 L263.2,159.2 L263.9,159.3 L264.6,159.4 L265.4,159.5 L266.1,159.6 L266.8,159.7 L267.6,159.8 L268.3,159.9 L269.0,160.0 L269.8,160.0 L270.5,160.1 L271.2,160.1 L272.0,160.1 L272.7,160.2 L273.4,160.2 L274.2,160.2 L274.9,160.2 L275.6,160.2 L276.4,160.2 L277.1,160.2 L277.8,160.1 L278.6,160.1 L279.3,160.1 L280.0,160.0 L280.8,160.0 L281.5,159.9 L282.2,159.8 L283.0,159.7 L283.7,159.6 L284.4,159.6 L285.2,159.5 L285.9,159.3 L286.6,159.2 L287.4,159.1 L288.1,159.0 L288.8,158.8 L289.6,158.7 L290.3,158.5 L291.0,158.4 L291.8,158.2 L292.5,158.0 L293.2,157.8 L294.0,157.6 L294.7,157.4 L295.4,157.2 L296.2,157.0 L296.9,156.8 L297.6,156.6 L298.4,156.3 L299.1,156.1 L299.8,155.9 L300.6,155.6 L301.3,155.3 L302.0,155.1 L302.8,154.8 L303.5,154.5 L304.2,154.2 L305.0,153.9 L305.7,153.6 L306.4,153.3 L307.2,153.0 L307.9,152.7 L308.6,152.4 L309.4,152.1 L310.1,151.7 L310.8,151.4 L311.6,151.1 L312.3,150.7 L313.0,150.3 L313.8,150.0 L314.5,149.6 L315.2,149.3 L316.0,148.9 L316.7,148.5 L317.4,148.1 L318.2,147.7 L318.9,147.3 L319.6,146.9 L320.4,146.5 L321.1,146.1 L321.8,145.7 L322.6,145.3 L323.3,144.9 L324.0,144.4 L324.8,144.0 L325.5,143.6 L326.2,143.1 L327.0,142.7 L327.7,142.3 L328.4,141.8 L329.2,141.4 L329.9,140.9 L330.6,140.5 L331.4,140.0 L332.1,139.5 L332.8,139.1 L333.6,138.6 L334.3,138.1 L335.0,137.7 L335.8,137.2 L336.5,136.7 L337.2,136.3 L338.0,135.8 L338.7,135.3 L339.4,134.8 L340.2,134.3 L340.9,133.8 L341.6,133.4 L342.4,132.9 L343.1,132.4 L343.8,131.9 L344.6,131.4 L345.3,130.9 L346.0,130.4 L346.8,129.9 L347.5,129.4 L348.2,129.0 L349.0,128.5 L349.7,128.0 L350.4,127.5 L351.2,127.0 L351.9,126.5 L352.6,126.0 L353.4,125.5 L354.1,125.0 L354.8,124.6 L355.6,124.1 L356.3,123.6 L357.0,123.1 L357.8,122.6 L358.5,122.1 L359.2,121.7 L360.0,121.2 L360.7,120.7 L361.4,120.2 L362.2,119.8 L362.9,119.3 L363.6,118.8 L364.4,118.4 L365.1,117.9 L365.8,117.5 L366.6,117.0 L367.3,116.6 L368.0,116.1 L368.8,115.7 L369.5,115.2 L370.2,114.8 L371.0,114.3 L371.7,113.9 L372.4,113.5 L373.2,113.1 L373.9,112.6 L374.6,112.2 L375.4,111.8 L376.1,111.4 L376.8,111.0 L377.6,110.6 L378.3,110.2 L379.0,109.8 L379.8,109.4 L380.5,109.1 L381.2,108.7 L382.0,108.3 L382.7,108.0 L383.4,107.6 L384.2,107.2 L384.9,106.9 L385.6,106.5 L386.4,106.2 L387.1,105.9 L387.8,105.5 L388.6,105.2 L389.3,104.9 L390.0,104.6 L390.8,104.3 L391.5,104.0 L392.2,103.7 L393.0,103.4 L393.7,103.2 L394.4,102.9 L395.2,102.6 L395.9,102.4 L396.6,102.1 L397.4,101.9 L398.1,101.6 L398.8,101.4 L399.6,101.2 L400.3,100.9 L401.0,100.7 L401.8,100.5 L402.5,100.3 L403.2,100.1 L404.0,100.0 L404.7,99.8 L405.4,99.6 L406.2,99.5 L406.9,99.3 L407.6,99.2 L408.4,99.0 L409.1,98.9 L409.8,98.8 L410.6,98.6 L411.3,98.5 L412.0,98.4 L412.8,98.3 L413.5,98.2 L414.2,98.2 L415.0,98.1 L415.7,98.0 L416.4,98.0 L417.2,97.9 L417.9,97.9 L418.6,97.9 L419.4,97.8 L420.1,97.8 L420.8,97.8 L421.6,97.8 L422.3,97.8 L423.0,97.8 L423.8,97.8 L424.5,97.9 L425.2,97.9 L426.0,97.9 L426.7,98.0 L427.4,98.1 L428.2,98.1 L428.9,98.2 L429.6,98.3 L430.4,98.4 L431.1,98.5 L431.8,98.6 L432.6,98.7 L433.3,98.8 L434.0,98.9 L434.8,99.1 L435.5,99.2 L436.2,99.4 L437.0,99.5 L437.7,99.7 L438.4,99.9 L439.2,100.0 L439.9,100.2 L440.6,100.4 L441.4,100.6 L442.1,100.8 L442.8,101.0 L443.6,101.3 L444.3,101.5 L445.0,101.7 L445.8,102.0 L446.5,102.2 L447.2,102.5 L448.0,102.7 L448.7,103.0 L449.4,103.3 L450.2,103.5 L450.9,103.8 L451.6,104.1 L452.4,104.4 L453.1,104.7 L453.8,105.0 L454.6,105.4 L455.3,105.7 L456.0,106.0 L456.8,106.3 L457.5,106.7 L458.2,107.0 L459.0,107.4 L459.7,107.7 L460.4,108.1 L461.2,108.5 L461.9,108.8 L462.6,109.2 L463.4,109.6 L464.1,110.0 L464.8,110.4 L465.6,110.8 L466.3,111.2 L467.0,111.6 L467.8,112.0 L468.5,112.4 L469.2,112.8 L470.0,113.2 L470.7,113.7 L471.4,114.1 L472.2,114.5 L472.9,115.0 L473.6,115.4 L474.4,115.8 L475.1,116.3 L475.8,116.7 L476.6,117.2 L477.3,117.7 L478.0,118.1 L478.8,118.6 L479.5,119.0 L480.2,119.5 L481.0,120.0 L481.7,120.4 L482.4,120.9 L483.2,121.4 L483.9,121.9 L484.6,122.3 L485.4,122.8 L486.1,123.3 L486.8,123.8 L487.6,124.3 L488.3,124.8 L489.0,125.2 L489.8,125.7 L490.5,126.2 L491.2,126.7 L492.0,127.2 L492.7,127.7 L493.4,128.2 L494.2,128.7 L494.9,129.2 L495.6,129.7 L496.4,130.1 L497.1,130.6 L497.8,131.1 L498.6,131.6 L499.3,132.1 L500.0,132.6 L500.8,133.1 L501.5,133.6 L502.2,134.0 L503.0,134.5 L503.7,135.0 L504.4,135.5 L505.2,136.0 L505.9,136.5 L506.6,136.9 L507.4,137.4 L508.1,137.9 L508.8,138.3 L509.6,138.8 L510.3,139.3 L511.0,139.7 L511.8,140.2 L512.5,140.7 L513.2,141.1 L514.0,141.6 L514.7,142.0 L515.4,142.4 L516.2,142.9 L516.9,143.3 L517.6,143.8 L518.4,144.2 L519.1,144.6 L519.8,145.0 L520.6,145.5 L521.3,145.9 L522.0,146.3 L522.8,146.7 L523.5,147.1 L524.2,147.5 L525.0,147.9 L525.7,148.3 L526.4,148.7 L527.2,149.0 L527.9,149.4 L528.6,149.8 L529.4,150.1 L530.1,150.5 L530.8,150.9 L531.6,151.2 L532.3,151.5 L533.0,151.9 L533.8,152.2 L534.5,152.5 L535.2,152.9 L536.0,153.2 L536.7,153.5 L537.4,153.8 L538.2,154.1 L538.9,154.4 L539.6,154.6 L540.4,154.9 L541.1,155.2 L541.8,155.5 L542.6,155.7 L543.3,156.0 L544.1,156.2 L544.8,156.4 L545.5,156.7 L546.3,156.9 L547.0,157.1 L547.7,157.3 L548.5,157.5 L549.2,157.7 L549.9,157.9 L550.7,158.1 L551.4,158.3 L552.1,158.4 L552.9,158.6 L553.6,158.7 L554.3,158.9 L555.1,159.0 L555.8,159.2 L556.5,159.3 L557.3,159.4 L558.0,159.5 L558.7,159.6 L559.5,159.7 L560.2,159.8 L560.9,159.8 L561.7,159.9 L562.4,160.0 L563.1,160.0 L563.9,160.1 L564.6,160.1 L565.3,160.2 L566.1,160.2 L566.8,160.2 L567.5,160.2 L568.3,160.2 L569.0,160.2 L569.7,160.2 L570.5,160.2 L571.2,160.1 L571.9,160.1 L572.7,160.0 L573.4,160.0 L574.1,159.9 L574.9,159.9 L575.6,159.8 L576.3,159.7 L577.1,159.6 L577.8,159.5 L578.5,159.4 L579.3,159.3 L580.0,159.2 L580.7,159.0 L581.5,158.9 L582.2,158.8 L582.9,158.6 L583.7,158.4 L584.4,158.3 L585.1,158.1 L585.9,157.9 L586.6,157.7 L587.3,157.5 L588.1,157.3 L588.8,157.1 L589.5,156.9 L590.3,156.7 L591.0,156.5 L591.7,156.2 L592.5,156.0 L593.2,155.7 L593.9,155.5 L594.7,155.2 L595.4,154.9 L596.1,154.7 L596.9,154.4 L597.6,154.1 L598.3,153.8 L599.1,153.5 L599.8,153.2 L600.5,152.9 L601.3,152.6 L602.0,152.2 L602.7,151.9 L603.5,151.6 L604.2,151.2 L604.9,150.9 L605.7,150.5 L606.4,150.2 L607.1,149.8 L607.9,149.4 L608.6,149.1 L609.3,148.7 L610.1,148.3 L610.8,147.9 L611.5,147.5 L612.3,147.1 L613.0,146.7 L613.7,146.3 L614.5,145.9 L615.2,145.5 L615.9,145.1 L616.7,144.7 L617.4,144.2 L618.1,143.8 L618.9,143.4 L619.6,142.9 L620.3,142.5 L621.1,142.0 L621.8,141.6 L622.5,141.1 L623.3,140.7 L624.0,140.2 L624.7,139.8 L625.5,139.3 L626.2,138.8 L626.9,138.4 L627.7,137.9 L628.4,137.4 L629.1,137.0 L629.9,136.5 L630.6,136.0 L631.3,135.5 L632.1,135.1 L632.8,134.6 L633.5,134.1 L634.3,133.6 L635.0,133.1 L635.7,132.6 L636.5,132.1 L637.2,131.7 L637.9,131.2 L638.7,130.7 L639.4,130.2 L640.1,129.7 L640.9,129.2 L641.6,128.7 L642.3,128.2 L643.1,127.7 L643.8,127.2 L644.5,126.8 L645.3,126.3 L646.0,125.8 L646.7,125.3 L647.5,124.8 L648.2,124.3 L648.9,123.8 L649.7,123.3 L650.4,122.9 L651.1,122.4 L651.9,121.9 L652.6,121.4 L653.3,121.0 L654.1,120.5 L654.8,120.0 L655.5,119.5 L656.3,119.1 L657.0,118.6 L657.7,118.1 L658.5,117.7 L659.2,117.2 L659.9,116.8 L660.7,116.3 L661.4,115.9 L662.1,115.4 L662.9,115.0 L663.6,114.6 L664.3,114.1 L665.1,113.7 L665.8,113.3 L666.5,112.9 L667.3,112.4 L668.0,112.0 L668.7,111.6 L669.5,111.2 L670.2,110.8 L670.9,110.4 L671.7,110.0 L672.4,109.6 L673.1,109.2 L673.9,108.9 L674.6,108.5 L675.3,108.1 L676.1,107.8 L676.8,107.4 L677.5,107.1 L678.3,106.7 L679.0,106.4 L679.7,106.0 L680.5,105.7 L681.2,105.4 L681.9,105.1 L682.7,104.8 L683.4,104.5 L684.1,104.2 L684.9,103.9 L685.6,103.6 L686.3,103.3 L687.1,103.0 L687.8,102.7 L688.5,102.5 L689.3,102.2 L690.0,102.0" fill="none" stroke="#2f855a" stroke-width="2"/>
  <path d="M104.0,156.0 L104.7,155.8 L105.5,155.5 L106.2,155.3 L106.9,155.0 L107.7,154.7 L108.4,154.4 L109.1,154.1 L109.9,153.8 L110.6,153.5 L111.3,153.2 L112.1,152.9 L112.8,152.6 L113.5,152.3 L114.3,152.0 L115.0,151.6 L115.7,151.3 L116.5,150.9 L117.2,150.6 L117.9,150.2 L118.7,149.9 L119.4,149.5 L120.1,149.1 L120.9,148.8 L121.6,148.4 L122.3,148.0 L123.1,147.6 L123.8,147.2 L124.5,146.8 L125.3,146.4 L126.0,146.0 L126.7,145.6 L127.5,145.1 L128.2,144.7 L128.9,144.3 L129.7,143.9 L130.4,143.4 L131.1,143.0 L131.9,142.6 L132.6,142.1 L133.3,141.7 L134.1,141.2 L134.8,140.8 L135.5,140.3 L136.3,139.9 L137.0,139.4 L137.7,138.9 L138.5,138.5 L139.2,138.0 L139.9,137.5 L140.7,137.0 L141.4,136.6 L142.1,136.1 L142.9,135.6 L143.6,135.1 L144.3,134.7 L145.1,134.2 L145.8,133.7 L146.5,133.2 L147.3,132.7 L148.0,132.2 L148.7,131.7 L149.5,131.2 L150.2,130.8 L150.9,130.3 L151.7,129.8 L152.4,129.3 L153.1,128.8 L153.9,128.3 L154.6,127.8 L155.3,127.3 L156.1,126.8 L156.8,126.3 L157.5,125.9 L158.3,125.4 L159.0,124.9 L159.7,124.4 L160.5,123.9 L161.2,123.4 L161.9,122.9 L162.7,122.5 L163.4,122.0 L164.1,121.5 L164.9,121.0 L165.6,120.6 L166.3,120.1 L167.1,119.6 L167.8,119.2 L168.5,118.7 L169.3,118.2 L170.0,117.8 L170.7,117.3 L171.5,116.9 L172.2,116.4 L172.9,116.0 L173.7,115.5 L174.4,115.1 L175.1,114.6 L175.9,114.2 L176.6,113.8 L177.3,113.3 L178.1,112.9 L178.8,112.5 L179.5,112.1 L180.3,111.7 L181.0,111.3 L181.7,110.9 L182.5,110.5 L183.2,110.1 L183.9,109.7 L184.7,109.3 L185.4,108.9 L186.1,108.6 L186.9,108.2 L187.6,107.8 L188.3,107.5 L189.1,107.1 L189.8,106.8 L190.5,106.4 L191.3,106.1 L192.0,105.8 L192.7,105.4 L193.5,105.1 L194.2,104.8 L194.9,104.5 L195.7,104.2 L196.4,103.9 L197.1,103.6 L197.9,103.3 L198.6,103.1 L199.3,102.8 L200.1,102.5 L200.8,102.3 L201.5,102.0 L202.3,101.8 L203.0,101.5 L203.7,101.3 L204.5,101.1 L205.2,100.9 L205.9,100.7 L206.7,100.5 L207.4,100.3 L208.1,100.1 L208.9,99.9 L209.6,99.7 L210.3,99.6 L211.1,99.4 L211.8,99.2 L212.5,99.1 L213.3,99.0 L214.0,98.8 L214.7,98.7 L215.5,98.6 L216.2,98.5 L216.9,98.4 L217.7,98.3 L218.4,98.2 L219.1,98.1 L219.9,98.1 L220.6,98.0 L221.3,98.0 L222.1,97.9 L222.8,97.9 L223.5,97.8 L224.3,97.8 L225.0,97.8 L225.7,97.8 L226.5,97.8 L227.2,97.8 L227.9,97.8 L228.7,97.8 L229.4,97.9 L230.1,97.9 L230.9,98.0 L231.6,98.0 L232.3,98.1 L233.1,98.2 L233.8,98.2 L234.5,98.3 L235.3,98.4 L236.0,98.5 L236.7,98.6 L237.5,98.7 L238.2,98.8 L238.9,99.0 L239.7,99.1 L240.4,99.3 L241.1,99.4 L241.9,99.6 L242.6,99.7 L243.3,99.9 L244.1,100.1 L244.8,100.3 L245.5,100.5 L246.3,100.7 L247.0,100.9 L247.7,101.1 L248.5,101.3 L249.2,101.6 L249.9,101.8 L250.7,102.0 L251.4,102.3 L252.2,102.5 L252.9,102.8 L253.6,103.1 L254.4,103.4 L255.1,103.6 L255.8,103.9 L256.6,104.2 L257.3,104.5 L258.0,104.8 L258.8,105.1 L259.5,105.5 L260.2,105.8 L261.0,106.1 L261.7,106.5 L262.4,106.8 L263.2,107.1 L263.9,107.5 L264.6,107.9 L265.4,108.2 L266.1,108.6 L266.8,109.0 L267.6,109.3 L268.3,109.7 L269.0,110.1 L269.8,110.5 L270.5,110.9 L271.2,111.3 L272.0,111.7 L272.7,112.1 L273.4,112.5 L274.2,113.0 L274.9,113.4 L275.6,113.8 L276.4,114.2 L277.1,114.7 L277.8,115.1 L278.6,115.6 L279.3,116.0 L280.0,116.4 L280.8,116.9 L281.5,117.3 L282.2,117.8 L283.0,118.3 L283.7,118.7 L284.4,119.2 L285.2,119.7 L285.9,120.1 L286.6,120.6 L287.4,121.1 L288.1,121.5 L288.8,122.0 L289.6,122.5 L290.3,123.0 L291.0,123.5 L291.8,124.0 L292.5,124.4 L293.2,124.9 L294.0,125.4 L294.7,125.9 L295.4,126.4 L296.2,126.9 L296.9,127.4 L297.6,127.9 L298.4,128.3 L299.1,128.8 L299.8,129.3 L300.6,129.8 L301.3,130.3 L302.0,130.8 L302.8,131.3 L303.5,131.8 L304.2,132.3 L305.0,132.8 L305.7,133.2 L306.4,133.7 L307.2,134.2 L307.9,134.7 L308.6,135.2 L309.4,135.7 L310.1,136.1 L310.8,136.6 L311.6,137.1 L312.3,137.6 L313.0,138.0 L313.8,138.5 L314.5,139.0 L315.2,139.4 L316.0,139.9 L316.7,140.3 L317.4,140.8 L318.2,141.3 L318.9,141.7 L319.6,142.2 L320.4,142.6 L321.1,143.0 L321.8,143.5 L322.6,143.9 L323.3,144.3 L324.0,144.8 L324.8,145.2 L325.5,145.6 L326.2,146.0 L327.0,146.4 L327.7,146.8 L328.4,147.2 L329.2,147.6 L329.9,148.0 L330.6,148.4 L331.4,148.8 L332.1,149.2 L332.8,149.5 L333.6,149.9 L334.3,150.3 L335.0,150.6 L335.8,151.0 L336.5,151.3 L337.2,151.7 L338.0,152.0 L338.7,152.3 L339.4,152.6 L340.2,153.0 L340.9,153.3 L341.6,153.6 L342.4,153.9 L343.1,154.2 L343.8,154.5 L344.6,154.7 L345.3,155.0 L346.0,155.3 L346.8,155.5 L347.5,155.8 L348.2,156.0 L349.0,156.3 L349.7,156.5 L350.4,156.7 L351.2,157.0 L351.9,157.2 L352.6,157.4 L353.4,157.6 L354.1,157.8 L354.8,158.0 L355.6,158.1 L356.3,158.3 L357.0,158.5 L357.8,158.6 L358.5,158.8 L359.2,158.9 L360.0,159.1 L360.7,159.2 L361.4,159.3 L362.2,159.4 L362.9,159.5 L363.6,159.6 L364.4,159.7 L365.1,159.8 L365.8,159.9 L366.6,159.9 L367.3,160.0 L368.0,160.1 L368.8,160.1 L369.5,160.1 L370.2,160.2 L371.0,160.2 L371.7,160.2 L372.4,160.2 L373.2,160.2 L373.9,160.2 L374.6,160.2 L375.4,160.1 L376.1,160.1 L376.8,160.1 L377.6,160.0 L378.3,160.0 L379.0,159.9 L379.8,159.8 L380.5,159.8 L381.2,159.7 L382.0,159.6 L382.7,159.5 L383.4,159.4 L384.2,159.2 L384.9,159.1 L385.6,159.0 L386.4,158.8 L387.1,158.7 L387.8,158.5 L388.6,158.4 L389.3,158.2 L390.0,158.0 L390.8,157.9 L391.5,157.7 L392.2,157.5 L393.0,157.3 L393.7,157.1 L394.4,156.8 L395.2,156.6 L395.9,156.4 L396.6,156.1 L397.4,155.9 L398.1,155.6 L398.8,155.4 L399.6,155.1 L400.3,154.8 L401.0,154.6 L401.8,154.3 L402.5,154.0 L403.2,153.7 L404.0,153.4 L404.7,153.1 L405.4,152.8 L406.2,152.5 L406.9,152.1 L407.6,151.8 L408.4,151.5 L409.1,151.1 L409.8,150.8 L410.6,150.4 L411.3,150.0 L412.0,149.7 L412.8,149.3 L413.5,148.9 L414.2,148.6 L415.0,148.2 L415.7,147.8 L416.4,147.4 L417.2,147.0 L417.9,146.6 L418.6,146.2 L419.4,145.8 L420.1,145.4 L420.8,144.9 L421.6,144.5 L422.3,144.1 L423.0,143.7 L423.8,143.2 L424.5,142.8 L425.2,142.3 L426.0,141.9 L426.7,141.4 L427.4,141.0 L428.2,140.5 L428.9,140.1 L429.6,139.6 L430.4,139.2 L431.1,138.7 L431.8,138.2 L432.6,137.8 L433.3,137.3 L434.0,136.8 L434.8,136.3 L435.5,135.9 L436.2,135.4 L437.0,134.9 L437.7,134.4 L438.4,133.9 L439.2,133.4 L439.9,133.0 L440.6,132.5 L441.4,132.0 L442.1,131.5 L442.8,131.0 L443.6,130.5 L444.3,130.0 L445.0,129.5 L445.8,129.0 L446.5,128.6 L447.2,128.1 L448.0,127.6 L448.7,127.1 L449.4,126.6 L450.2,126.1 L450.9,125.6 L451.6,125.1 L452.4,124.6 L453.1,124.2 L453.8,123.7 L454.6,123.2 L455.3,122.7 L456.0,122.2 L456.8,121.7 L457.5,121.3 L458.2,120.8 L459.0,120.3 L459.7,119.9 L460.4,119.4 L461.2,118.9 L461.9,118.5 L462.6,118.0 L463.4,117.5 L464.1,117.1 L464.8,116.6 L465.6,116.2 L466.3,115.7 L467.0,115.3 L467.8,114.9 L468.5,114.4 L469.2,114.0 L470.0,113.6 L470.7,113.1 L471.4,112.7 L472.2,112.3 L472.9,111.9 L473.6,111.5 L474.4,111.1 L475.1,110.7 L475.8,110.3 L476.6,109.9 L477.3,109.5 L478.0,109.1 L478.8,108.7 L479.5,108.4 L480.2,108.0 L481.0,107.7 L481.7,107.3 L482.4,106.9 L483.2,106.6 L483.9,106.3 L484.6,105.9 L485.4,105.6 L486.1,105.3 L486.8,105.0 L487.6,104.7 L488.3,104.4 L489.0,104.1 L489.8,103.8 L490.5,103.5 L491.2,103.2 L492.0,102.9 L492.7,102.7 L493.4,102.4 L494.2,102.1 L494.9,101.9 L495.6,101.7 L496.4,101.4 L497.1,101.2 L497.8,101.0 L498.6,100.8 L499.3,100.6 L500.0,100.4 L500.8,100.2 L501.5,100.0 L502.2,99.8 L503.0,99.6 L503.7,99.5 L504.4,99.3 L505.2,99.2 L505.9,99.0 L506.6,98.9 L507.4,98.8 L508.1,98.7 L508.8,98.5 L509.6,98.4 L510.3,98.4 L511.0,98.3 L511.8,98.2 L512.5,98.1 L513.2,98.0 L514.0,98.0 L514.7,97.9 L515.4,97.9 L516.2,97.9 L516.9,97.8 L517.6,97.8 L518.4,97.8 L519.1,97.8 L519.8,97.8 L520.6,97.8 L521.3,97.8 L522.0,97.9 L522.8,97.9 L523.5,97.9 L524.2,98.0 L525.0,98.0 L525.7,98.1 L526.4,98.2 L527.2,98.3 L527.9,98.4 L528.6,98.5 L529.4,98.6 L530.1,98.7 L530.8,98.8 L531.6,98.9 L532.3,99.0 L533.0,99.2 L533.8,99.3 L534.5,99.5 L535.2,99.7 L536.0,99.8 L536.7,100.0 L537.4,100.2 L538.2,100.4 L538.9,100.6 L539.6,100.8 L540.4,101.0 L541.1,101.2 L541.8,101.4 L542.6,101.7 L543.3,101.9 L544.1,102.2 L544.8,102.4 L545.5,102.7 L546.3,102.9 L547.0,103.2 L547.7,103.5 L548.5,103.8 L549.2,104.1 L549.9,104.4 L550.7,104.7 L551.4,105.0 L552.1,105.3 L552.9,105.6 L553.6,106.0 L554.3,106.3 L555.1,106.6 L555.8,107.0 L556.5,107.3 L557.3,107.7 L558.0,108.0 L558.7,108.4 L559.5,108.8 L560.2,109.2 L560.9,109.5 L561.7,109.9 L562.4,110.3 L563.1,110.7 L563.9,111.1 L564.6,111.5 L565.3,111.9 L566.1,112.3 L566.8,112.7 L567.5,113.2 L568.3,113.6 L569.0,114.0 L569.7,114.5 L570.5,114.9 L571.2,115.3 L571.9,115.8 L572.7,116.2 L573.4,116.7 L574.1,117.1 L574.9,117.6 L575.6,118.0 L576.3,118.5 L577.1,119.0 L577.8,119.4 L578.5,119.9 L579.3,120.4 L580.0,120.8 L580.7,121.3 L581.5,121.8 L582.2,122.3 L582.9,122.7 L583.7,123.2 L584.4,123.7 L585.1,124.2 L585.9,124.7 L586.6,125.2 L587.3,125.7 L588.1,126.1 L588.8,126.6 L589.5,127.1 L590.3,127.6 L591.0,128.1 L591.7,128.6 L592.5,129.1 L593.2,129.6 L593.9,130.1 L594.7,130.6 L595.4,131.0 L596.1,131.5 L596.9,132.0 L597.6,132.5 L598.3,133.0 L599.1,133.5 L599.8,134.0 L600.5,134.5 L601.3,134.9 L602.0,135.4 L602.7,135.9 L603.5,136.4 L604.2,136.8 L604.9,137.3 L605.7,137.8 L606.4,138.3 L607.1,138.7 L607.9,139.2 L608.6,139.7 L609.3,140.1 L610.1,140.6 L610.8,141.0 L611.5,141.5 L612.3,141.9 L613.0,142.4 L613.7,142.8 L614.5,143.3 L615.2,143.7 L615.9,144.1 L616.7,144.5 L617.4,145.0 L618.1,145.4 L618.9,145.8 L619.6,146.2 L620.3,146.6 L621.1,147.0 L621.8,147.4 L622.5,147.8 L623.3,148.2 L624.0,148.6 L624.7,149.0 L625.5,149.3 L626.2,149.7 L626.9,150.1 L627.7,150.4 L628.4,150.8 L629.1,151.1 L629.9,151.5 L630.6,151.8 L631.3,152.2 L632.1,152.5 L632.8,152.8 L633.5,153.1 L634.3,153.4 L635.0,153.7 L635.7,154.0 L636.5,154.3 L637.2,154.6 L637.9,154.9 L638.7,155.1 L639.4,155.4 L640.1,155.7 L640.9,155.9 L641.6,156.2 L642.3,156.4 L643.1,156.6 L643.8,156.9 L644.5,157.1 L645.3,157.3 L646.0,157.5 L646.7,157.7 L647.5,157.9 L648.2,158.1 L648.9,158.2 L649.7,158.4 L650.4,158.6 L651.1,158.7 L651.9,158.9 L652.6,159.0 L653.3,159.1 L654.1,159.3 L654.8,159.4 L655.5,159.5 L656.3,159.6 L657.0,159.7 L657.7,159.8 L658.5,159.8 L659.2,159.9 L659.9,160.0 L660.7,160.0 L661.4,160.1 L662.1,160.1 L662.9,160.1 L663.6,160.2 L664.3,160.2 L665.1,160.2 L665.8,160.2 L666.5,160.2 L667.3,160.2 L668.0,160.2 L668.7,160.1 L669.5,160.1 L670.2,160.0 L670.9,160.0 L671.7,159.9 L672.4,159.9 L673.1,159.8 L673.9,159.7 L674.6,159.6 L675.3,159.5 L676.1,159.4 L676.8,159.3 L677.5,159.2 L678.3,159.1 L679.0,158.9 L679.7,158.8 L680.5,158.6 L681.2,158.5 L681.9,158.3 L682.7,158.1 L683.4,158.0 L684.1,157.8 L684.9,157.6 L685.6,157.4 L686.3,157.2 L687.1,156.9 L687.8,156.7 L688.5,156.5 L689.3,156.3 L690.0,156.0" fill="none" stroke="#2b6cb0" stroke-width="2"/>
  <line x1="708" y1="104" x2="730" y2="104" stroke="#c0392b" stroke-width="2"/>
  <text class="lg" x="736" y="108" fill="#c0392b">ia</text>
  <line x1="708" y1="122" x2="730" y2="122" stroke="#2f855a" stroke-width="2"/>
  <text class="lg" x="736" y="126" fill="#2f855a">ib</text>
  <line x1="708" y1="140" x2="730" y2="140" stroke="#2b6cb0" stroke-width="2"/>
  <text class="lg" x="736" y="144" fill="#2b6cb0">ic</text>
  <text class="ts" x="104" y="186">随转子旋转的三个正弦量，互差 120 度</text>
  <text class="hd" x="104" y="210">Clarke 变换后  i_alpha, i_beta</text>
  <line class="ax" x1="104" y1="259.0" x2="690" y2="259.0"/>
  <line class="ax" x1="104" y1="298" x2="104" y2="220"/>
  <text class="tk" x="96" y="224.0">+5</text>
  <text class="tk" x="96" y="302">-5</text>
  <line class="gd" x1="104.0" y1="298" x2="104.0" y2="220"/>
  <line class="gd" x1="250.5" y1="298" x2="250.5" y2="220"/>
  <line class="gd" x1="397.0" y1="298" x2="397.0" y2="220"/>
  <line class="gd" x1="543.5" y1="298" x2="543.5" y2="220"/>
  <line class="gd" x1="690.0" y1="298" x2="690.0" y2="220"/>
  <path d="M104.0,259.0 L104.7,259.5 L105.5,260.0 L106.2,260.5 L106.9,261.0 L107.7,261.5 L108.4,261.9 L109.1,262.4 L109.9,262.9 L110.6,263.4 L111.3,263.9 L112.1,264.4 L112.8,264.9 L113.5,265.3 L114.3,265.8 L115.0,266.3 L115.7,266.8 L116.5,267.2 L117.2,267.7 L117.9,268.2 L118.7,268.7 L119.4,269.1 L120.1,269.6 L120.9,270.0 L121.6,270.5 L122.3,271.0 L123.1,271.4 L123.8,271.9 L124.5,272.3 L125.3,272.7 L126.0,273.2 L126.7,273.6 L127.5,274.0 L128.2,274.5 L128.9,274.9 L129.7,275.3 L130.4,275.7 L131.1,276.1 L131.9,276.6 L132.6,277.0 L133.3,277.4 L134.1,277.8 L134.8,278.1 L135.5,278.5 L136.3,278.9 L137.0,279.3 L137.7,279.7 L138.5,280.0 L139.2,280.4 L139.9,280.7 L140.7,281.1 L141.4,281.4 L142.1,281.8 L142.9,282.1 L143.6,282.4 L144.3,282.7 L145.1,283.1 L145.8,283.4 L146.5,283.7 L147.3,284.0 L148.0,284.3 L148.7,284.5 L149.5,284.8 L150.2,285.1 L150.9,285.4 L151.7,285.6 L152.4,285.9 L153.1,286.1 L153.9,286.4 L154.6,286.6 L155.3,286.8 L156.1,287.0 L156.8,287.2 L157.5,287.5 L158.3,287.7 L159.0,287.8 L159.7,288.0 L160.5,288.2 L161.2,288.4 L161.9,288.5 L162.7,288.7 L163.4,288.8 L164.1,289.0 L164.9,289.1 L165.6,289.2 L166.3,289.4 L167.1,289.5 L167.8,289.6 L168.5,289.7 L169.3,289.7 L170.0,289.8 L170.7,289.9 L171.5,290.0 L172.2,290.0 L172.9,290.1 L173.7,290.1 L174.4,290.1 L175.1,290.2 L175.9,290.2 L176.6,290.2 L177.3,290.2 L178.1,290.2 L178.8,290.2 L179.5,290.2 L180.3,290.1 L181.0,290.1 L181.7,290.1 L182.5,290.0 L183.2,289.9 L183.9,289.9 L184.7,289.8 L185.4,289.7 L186.1,289.6 L186.9,289.5 L187.6,289.4 L188.3,289.3 L189.1,289.2 L189.8,289.1 L190.5,288.9 L191.3,288.8 L192.0,288.7 L192.7,288.5 L193.5,288.3 L194.2,288.2 L194.9,288.0 L195.7,287.8 L196.4,287.6 L197.1,287.4 L197.9,287.2 L198.6,287.0 L199.3,286.8 L200.1,286.5 L200.8,286.3 L201.5,286.1 L202.3,285.8 L203.0,285.6 L203.7,285.3 L204.5,285.0 L205.2,284.8 L205.9,284.5 L206.7,284.2 L207.4,283.9 L208.1,283.6 L208.9,283.3 L209.6,283.0 L210.3,282.7 L211.1,282.3 L211.8,282.0 L212.5,281.7 L213.3,281.3 L214.0,281.0 L214.7,280.6 L215.5,280.3 L216.2,279.9 L216.9,279.6 L217.7,279.2 L218.4,278.8 L219.1,278.4 L219.9,278.0 L220.6,277.7 L221.3,277.3 L222.1,276.9 L222.8,276.5 L223.5,276.0 L224.3,275.6 L225.0,275.2 L225.7,274.8 L226.5,274.4 L227.2,273.9 L227.9,273.5 L228.7,273.1 L229.4,272.6 L230.1,272.2 L230.9,271.7 L231.6,271.3 L232.3,270.8 L233.1,270.4 L233.8,269.9 L234.5,269.5 L235.3,269.0 L236.0,268.5 L236.7,268.1 L237.5,267.6 L238.2,267.1 L238.9,266.6 L239.7,266.2 L240.4,265.7 L241.1,265.2 L241.9,264.7 L242.6,264.2 L243.3,263.8 L244.1,263.3 L244.8,262.8 L245.5,262.3 L246.3,261.8 L247.0,261.3 L247.7,260.8 L248.5,260.3 L249.2,259.9 L249.9,259.4 L250.7,258.9 L251.4,258.4 L252.2,257.9 L252.9,257.4 L253.6,256.9 L254.4,256.4 L255.1,255.9 L255.8,255.5 L256.6,255.0 L257.3,254.5 L258.0,254.0 L258.8,253.5 L259.5,253.0 L260.2,252.5 L261.0,252.1 L261.7,251.6 L262.4,251.1 L263.2,250.6 L263.9,250.2 L264.6,249.7 L265.4,249.2 L266.1,248.8 L266.8,248.3 L267.6,247.8 L268.3,247.4 L269.0,246.9 L269.8,246.5 L270.5,246.0 L271.2,245.6 L272.0,245.1 L272.7,244.7 L273.4,244.3 L274.2,243.8 L274.9,243.4 L275.6,243.0 L276.4,242.6 L277.1,242.2 L277.8,241.7 L278.6,241.3 L279.3,240.9 L280.0,240.5 L280.8,240.1 L281.5,239.8 L282.2,239.4 L283.0,239.0 L283.7,238.6 L284.4,238.3 L285.2,237.9 L285.9,237.5 L286.6,237.2 L287.4,236.8 L288.1,236.5 L288.8,236.2 L289.6,235.8 L290.3,235.5 L291.0,235.2 L291.8,234.9 L292.5,234.6 L293.2,234.3 L294.0,234.0 L294.7,233.7 L295.4,233.4 L296.2,233.1 L296.9,232.8 L297.6,232.6 L298.4,232.3 L299.1,232.1 L299.8,231.8 L300.6,231.6 L301.3,231.3 L302.0,231.1 L302.8,230.9 L303.5,230.7 L304.2,230.5 L305.0,230.3 L305.7,230.1 L306.4,229.9 L307.2,229.8 L307.9,229.6 L308.6,229.4 L309.4,229.3 L310.1,229.1 L310.8,229.0 L311.6,228.9 L312.3,228.7 L313.0,228.6 L313.8,228.5 L314.5,228.4 L315.2,228.3 L316.0,228.2 L316.7,228.2 L317.4,228.1 L318.2,228.0 L318.9,228.0 L319.6,227.9 L320.4,227.9 L321.1,227.9 L321.8,227.8 L322.6,227.8 L323.3,227.8 L324.0,227.8 L324.8,227.8 L325.5,227.8 L326.2,227.8 L327.0,227.9 L327.7,227.9 L328.4,228.0 L329.2,228.0 L329.9,228.1 L330.6,228.1 L331.4,228.2 L332.1,228.3 L332.8,228.4 L333.6,228.5 L334.3,228.6 L335.0,228.7 L335.8,228.8 L336.5,229.0 L337.2,229.1 L338.0,229.2 L338.7,229.4 L339.4,229.5 L340.2,229.7 L340.9,229.9 L341.6,230.1 L342.4,230.3 L343.1,230.4 L343.8,230.6 L344.6,230.9 L345.3,231.1 L346.0,231.3 L346.8,231.5 L347.5,231.8 L348.2,232.0 L349.0,232.2 L349.7,232.5 L350.4,232.8 L351.2,233.0 L351.9,233.3 L352.6,233.6 L353.4,233.9 L354.1,234.2 L354.8,234.5 L355.6,234.8 L356.3,235.1 L357.0,235.4 L357.8,235.7 L358.5,236.1 L359.2,236.4 L360.0,236.7 L360.7,237.1 L361.4,237.4 L362.2,237.8 L362.9,238.2 L363.6,238.5 L364.4,238.9 L365.1,239.3 L365.8,239.7 L366.6,240.1 L367.3,240.4 L368.0,240.8 L368.8,241.2 L369.5,241.6 L370.2,242.1 L371.0,242.5 L371.7,242.9 L372.4,243.3 L373.2,243.7 L373.9,244.2 L374.6,244.6 L375.4,245.0 L376.1,245.5 L376.8,245.9 L377.6,246.4 L378.3,246.8 L379.0,247.3 L379.8,247.7 L380.5,248.2 L381.2,248.6 L382.0,249.1 L382.7,249.6 L383.4,250.0 L384.2,250.5 L384.9,251.0 L385.6,251.5 L386.4,251.9 L387.1,252.4 L387.8,252.9 L388.6,253.4 L389.3,253.9 L390.0,254.4 L390.8,254.8 L391.5,255.3 L392.2,255.8 L393.0,256.3 L393.7,256.8 L394.4,257.3 L395.2,257.8 L395.9,258.3 L396.6,258.8 L397.4,259.2 L398.1,259.7 L398.8,260.2 L399.6,260.7 L400.3,261.2 L401.0,261.7 L401.8,262.2 L402.5,262.7 L403.2,263.2 L404.0,263.6 L404.7,264.1 L405.4,264.6 L406.2,265.1 L406.9,265.6 L407.6,266.1 L408.4,266.5 L409.1,267.0 L409.8,267.5 L410.6,268.0 L411.3,268.4 L412.0,268.9 L412.8,269.4 L413.5,269.8 L414.2,270.3 L415.0,270.7 L415.7,271.2 L416.4,271.6 L417.2,272.1 L417.9,272.5 L418.6,273.0 L419.4,273.4 L420.1,273.8 L420.8,274.3 L421.6,274.7 L422.3,275.1 L423.0,275.5 L423.8,275.9 L424.5,276.4 L425.2,276.8 L426.0,277.2 L426.7,277.6 L427.4,277.9 L428.2,278.3 L428.9,278.7 L429.6,279.1 L430.4,279.5 L431.1,279.8 L431.8,280.2 L432.6,280.6 L433.3,280.9 L434.0,281.3 L434.8,281.6 L435.5,281.9 L436.2,282.3 L437.0,282.6 L437.7,282.9 L438.4,283.2 L439.2,283.5 L439.9,283.8 L440.6,284.1 L441.4,284.4 L442.1,284.7 L442.8,285.0 L443.6,285.2 L444.3,285.5 L445.0,285.8 L445.8,286.0 L446.5,286.2 L447.2,286.5 L448.0,286.7 L448.7,286.9 L449.4,287.1 L450.2,287.4 L450.9,287.6 L451.6,287.7 L452.4,287.9 L453.1,288.1 L453.8,288.3 L454.6,288.5 L455.3,288.6 L456.0,288.8 L456.8,288.9 L457.5,289.0 L458.2,289.2 L459.0,289.3 L459.7,289.4 L460.4,289.5 L461.2,289.6 L461.9,289.7 L462.6,289.8 L463.4,289.9 L464.1,289.9 L464.8,290.0 L465.6,290.0 L466.3,290.1 L467.0,290.1 L467.8,290.2 L468.5,290.2 L469.2,290.2 L470.0,290.2 L470.7,290.2 L471.4,290.2 L472.2,290.2 L472.9,290.1 L473.6,290.1 L474.4,290.1 L475.1,290.0 L475.8,290.0 L476.6,289.9 L477.3,289.8 L478.0,289.8 L478.8,289.7 L479.5,289.6 L480.2,289.5 L481.0,289.4 L481.7,289.3 L482.4,289.1 L483.2,289.0 L483.9,288.9 L484.6,288.7 L485.4,288.6 L486.1,288.4 L486.8,288.2 L487.6,288.1 L488.3,287.9 L489.0,287.7 L489.8,287.5 L490.5,287.3 L491.2,287.1 L492.0,286.9 L492.7,286.7 L493.4,286.4 L494.2,286.2 L494.9,285.9 L495.6,285.7 L496.4,285.4 L497.1,285.2 L497.8,284.9 L498.6,284.6 L499.3,284.3 L500.0,284.0 L500.8,283.7 L501.5,283.4 L502.2,283.1 L503.0,282.8 L503.7,282.5 L504.4,282.2 L505.2,281.8 L505.9,281.5 L506.6,281.2 L507.4,280.8 L508.1,280.5 L508.8,280.1 L509.6,279.7 L510.3,279.4 L511.0,279.0 L511.8,278.6 L512.5,278.2 L513.2,277.9 L514.0,277.5 L514.7,277.1 L515.4,276.7 L516.2,276.3 L516.9,275.8 L517.6,275.4 L518.4,275.0 L519.1,274.6 L519.8,274.2 L520.6,273.7 L521.3,273.3 L522.0,272.9 L522.8,272.4 L523.5,272.0 L524.2,271.5 L525.0,271.1 L525.7,270.6 L526.4,270.2 L527.2,269.7 L527.9,269.2 L528.6,268.8 L529.4,268.3 L530.1,267.8 L530.8,267.4 L531.6,266.9 L532.3,266.4 L533.0,265.9 L533.8,265.5 L534.5,265.0 L535.2,264.5 L536.0,264.0 L536.7,263.5 L537.4,263.0 L538.2,262.5 L538.9,262.1 L539.6,261.6 L540.4,261.1 L541.1,260.6 L541.8,260.1 L542.6,259.6 L543.3,259.1 L544.1,258.6 L544.8,258.1 L545.5,257.7 L546.3,257.2 L547.0,256.7 L547.7,256.2 L548.5,255.7 L549.2,255.2 L549.9,254.7 L550.7,254.2 L551.4,253.8 L552.1,253.3 L552.9,252.8 L553.6,252.3 L554.3,251.8 L555.1,251.4 L555.8,250.9 L556.5,250.4 L557.3,249.9 L558.0,249.5 L558.7,249.0 L559.5,248.5 L560.2,248.1 L560.9,247.6 L561.7,247.2 L562.4,246.7 L563.1,246.3 L563.9,245.8 L564.6,245.4 L565.3,244.9 L566.1,244.5 L566.8,244.1 L567.5,243.6 L568.3,243.2 L569.0,242.8 L569.7,242.4 L570.5,242.0 L571.2,241.5 L571.9,241.1 L572.7,240.7 L573.4,240.3 L574.1,240.0 L574.9,239.6 L575.6,239.2 L576.3,238.8 L577.1,238.4 L577.8,238.1 L578.5,237.7 L579.3,237.4 L580.0,237.0 L580.7,236.7 L581.5,236.3 L582.2,236.0 L582.9,235.7 L583.7,235.3 L584.4,235.0 L585.1,234.7 L585.9,234.4 L586.6,234.1 L587.3,233.8 L588.1,233.5 L588.8,233.2 L589.5,233.0 L590.3,232.7 L591.0,232.4 L591.7,232.2 L592.5,231.9 L593.2,231.7 L593.9,231.5 L594.7,231.2 L595.4,231.0 L596.1,230.8 L596.9,230.6 L597.6,230.4 L598.3,230.2 L599.1,230.0 L599.8,229.8 L600.5,229.7 L601.3,229.5 L602.0,229.3 L602.7,229.2 L603.5,229.1 L604.2,228.9 L604.9,228.8 L605.7,228.7 L606.4,228.6 L607.1,228.5 L607.9,228.4 L608.6,228.3 L609.3,228.2 L610.1,228.1 L610.8,228.1 L611.5,228.0 L612.3,227.9 L613.0,227.9 L613.7,227.9 L614.5,227.8 L615.2,227.8 L615.9,227.8 L616.7,227.8 L617.4,227.8 L618.1,227.8 L618.9,227.8 L619.6,227.9 L620.3,227.9 L621.1,227.9 L621.8,228.0 L622.5,228.0 L623.3,228.1 L624.0,228.2 L624.7,228.3 L625.5,228.3 L626.2,228.4 L626.9,228.5 L627.7,228.6 L628.4,228.8 L629.1,228.9 L629.9,229.0 L630.6,229.2 L631.3,229.3 L632.1,229.5 L632.8,229.6 L633.5,229.8 L634.3,230.0 L635.0,230.2 L635.7,230.3 L636.5,230.5 L637.2,230.8 L637.9,231.0 L638.7,231.2 L639.4,231.4 L640.1,231.6 L640.9,231.9 L641.6,232.1 L642.3,232.4 L643.1,232.6 L643.8,232.9 L644.5,233.2 L645.3,233.5 L646.0,233.7 L646.7,234.0 L647.5,234.3 L648.2,234.6 L648.9,234.9 L649.7,235.3 L650.4,235.6 L651.1,235.9 L651.9,236.2 L652.6,236.6 L653.3,236.9 L654.1,237.3 L654.8,237.6 L655.5,238.0 L656.3,238.3 L657.0,238.7 L657.7,239.1 L658.5,239.5 L659.2,239.9 L659.9,240.2 L660.7,240.6 L661.4,241.0 L662.1,241.4 L662.9,241.9 L663.6,242.3 L664.3,242.7 L665.1,243.1 L665.8,243.5 L666.5,244.0 L667.3,244.4 L668.0,244.8 L668.7,245.3 L669.5,245.7 L670.2,246.1 L670.9,246.6 L671.7,247.0 L672.4,247.5 L673.1,248.0 L673.9,248.4 L674.6,248.9 L675.3,249.3 L676.1,249.8 L676.8,250.3 L677.5,250.8 L678.3,251.2 L679.0,251.7 L679.7,252.2 L680.5,252.7 L681.2,253.1 L681.9,253.6 L682.7,254.1 L683.4,254.6 L684.1,255.1 L684.9,255.6 L685.6,256.1 L686.3,256.5 L687.1,257.0 L687.8,257.5 L688.5,258.0 L689.3,258.5 L690.0,259.0" fill="none" stroke="#b7791f" stroke-width="2"/>
  <path d="M104.0,227.8 L104.7,227.8 L105.5,227.8 L106.2,227.8 L106.9,227.9 L107.7,227.9 L108.4,227.9 L109.1,228.0 L109.9,228.0 L110.6,228.1 L111.3,228.2 L112.1,228.3 L112.8,228.4 L113.5,228.4 L114.3,228.6 L115.0,228.7 L115.7,228.8 L116.5,228.9 L117.2,229.0 L117.9,229.2 L118.7,229.3 L119.4,229.5 L120.1,229.6 L120.9,229.8 L121.6,230.0 L122.3,230.2 L123.1,230.4 L123.8,230.6 L124.5,230.8 L125.3,231.0 L126.0,231.2 L126.7,231.4 L127.5,231.7 L128.2,231.9 L128.9,232.2 L129.7,232.4 L130.4,232.7 L131.1,232.9 L131.9,233.2 L132.6,233.5 L133.3,233.8 L134.1,234.1 L134.8,234.4 L135.5,234.7 L136.3,235.0 L137.0,235.3 L137.7,235.6 L138.5,235.9 L139.2,236.3 L139.9,236.6 L140.7,237.0 L141.4,237.3 L142.1,237.7 L142.9,238.0 L143.6,238.4 L144.3,238.8 L145.1,239.1 L145.8,239.5 L146.5,239.9 L147.3,240.3 L148.0,240.7 L148.7,241.1 L149.5,241.5 L150.2,241.9 L150.9,242.3 L151.7,242.7 L152.4,243.2 L153.1,243.6 L153.9,244.0 L154.6,244.4 L155.3,244.9 L156.1,245.3 L156.8,245.8 L157.5,246.2 L158.3,246.7 L159.0,247.1 L159.7,247.6 L160.5,248.0 L161.2,248.5 L161.9,248.9 L162.7,249.4 L163.4,249.9 L164.1,250.3 L164.9,250.8 L165.6,251.3 L166.3,251.8 L167.1,252.2 L167.8,252.7 L168.5,253.2 L169.3,253.7 L170.0,254.2 L170.7,254.7 L171.5,255.1 L172.2,255.6 L172.9,256.1 L173.7,256.6 L174.4,257.1 L175.1,257.6 L175.9,258.1 L176.6,258.6 L177.3,259.1 L178.1,259.6 L178.8,260.0 L179.5,260.5 L180.3,261.0 L181.0,261.5 L181.7,262.0 L182.5,262.5 L183.2,263.0 L183.9,263.5 L184.7,263.9 L185.4,264.4 L186.1,264.9 L186.9,265.4 L187.6,265.9 L188.3,266.4 L189.1,266.8 L189.8,267.3 L190.5,267.8 L191.3,268.2 L192.0,268.7 L192.7,269.2 L193.5,269.6 L194.2,270.1 L194.9,270.6 L195.7,271.0 L196.4,271.5 L197.1,271.9 L197.9,272.4 L198.6,272.8 L199.3,273.2 L200.1,273.7 L200.8,274.1 L201.5,274.5 L202.3,275.0 L203.0,275.4 L203.7,275.8 L204.5,276.2 L205.2,276.6 L205.9,277.0 L206.7,277.4 L207.4,277.8 L208.1,278.2 L208.9,278.6 L209.6,279.0 L210.3,279.3 L211.1,279.7 L211.8,280.1 L212.5,280.4 L213.3,280.8 L214.0,281.1 L214.7,281.5 L215.5,281.8 L216.2,282.1 L216.9,282.5 L217.7,282.8 L218.4,283.1 L219.1,283.4 L219.9,283.7 L220.6,284.0 L221.3,284.3 L222.1,284.6 L222.8,284.9 L223.5,285.1 L224.3,285.4 L225.0,285.7 L225.7,285.9 L226.5,286.2 L227.2,286.4 L227.9,286.6 L228.7,286.8 L229.4,287.1 L230.1,287.3 L230.9,287.5 L231.6,287.7 L232.3,287.9 L233.1,288.0 L233.8,288.2 L234.5,288.4 L235.3,288.6 L236.0,288.7 L236.7,288.9 L237.5,289.0 L238.2,289.1 L238.9,289.2 L239.7,289.4 L240.4,289.5 L241.1,289.6 L241.9,289.7 L242.6,289.8 L243.3,289.8 L244.1,289.9 L244.8,290.0 L245.5,290.0 L246.3,290.1 L247.0,290.1 L247.7,290.1 L248.5,290.2 L249.2,290.2 L249.9,290.2 L250.7,290.2 L251.4,290.2 L252.2,290.2 L252.9,290.2 L253.6,290.1 L254.4,290.1 L255.1,290.0 L255.8,290.0 L256.6,289.9 L257.3,289.9 L258.0,289.8 L258.8,289.7 L259.5,289.6 L260.2,289.5 L261.0,289.4 L261.7,289.3 L262.4,289.2 L263.2,289.1 L263.9,288.9 L264.6,288.8 L265.4,288.6 L266.1,288.5 L266.8,288.3 L267.6,288.1 L268.3,288.0 L269.0,287.8 L269.8,287.6 L270.5,287.4 L271.2,287.2 L272.0,287.0 L272.7,286.7 L273.4,286.5 L274.2,286.3 L274.9,286.0 L275.6,285.8 L276.4,285.5 L277.1,285.3 L277.8,285.0 L278.6,284.7 L279.3,284.4 L280.0,284.2 L280.8,283.9 L281.5,283.6 L282.2,283.3 L283.0,282.9 L283.7,282.6 L284.4,282.3 L285.2,282.0 L285.9,281.6 L286.6,281.3 L287.4,281.0 L288.1,280.6 L288.8,280.2 L289.6,279.9 L290.3,279.5 L291.0,279.1 L291.8,278.8 L292.5,278.4 L293.2,278.0 L294.0,277.6 L294.7,277.2 L295.4,276.8 L296.2,276.4 L296.9,276.0 L297.6,275.6 L298.4,275.2 L299.1,274.7 L299.8,274.3 L300.6,273.9 L301.3,273.5 L302.0,273.0 L302.8,272.6 L303.5,272.1 L304.2,271.7 L305.0,271.2 L305.7,270.8 L306.4,270.3 L307.2,269.9 L307.9,269.4 L308.6,268.9 L309.4,268.5 L310.1,268.0 L310.8,267.5 L311.6,267.1 L312.3,266.6 L313.0,266.1 L313.8,265.6 L314.5,265.2 L315.2,264.7 L316.0,264.2 L316.7,263.7 L317.4,263.2 L318.2,262.7 L318.9,262.2 L319.6,261.8 L320.4,261.3 L321.1,260.8 L321.8,260.3 L322.6,259.8 L323.3,259.3 L324.0,258.8 L324.8,258.3 L325.5,257.8 L326.2,257.3 L327.0,256.9 L327.7,256.4 L328.4,255.9 L329.2,255.4 L329.9,254.9 L330.6,254.4 L331.4,253.9 L332.1,253.4 L332.8,253.0 L333.6,252.5 L334.3,252.0 L335.0,251.5 L335.8,251.1 L336.5,250.6 L337.2,250.1 L338.0,249.6 L338.7,249.2 L339.4,248.7 L340.2,248.2 L340.9,247.8 L341.6,247.3 L342.4,246.9 L343.1,246.4 L343.8,246.0 L344.6,245.5 L345.3,245.1 L346.0,244.7 L346.8,244.2 L347.5,243.8 L348.2,243.4 L349.0,242.9 L349.7,242.5 L350.4,242.1 L351.2,241.7 L351.9,241.3 L352.6,240.9 L353.4,240.5 L354.1,240.1 L354.8,239.7 L355.6,239.3 L356.3,239.0 L357.0,238.6 L357.8,238.2 L358.5,237.8 L359.2,237.5 L360.0,237.1 L360.7,236.8 L361.4,236.4 L362.2,236.1 L362.9,235.8 L363.6,235.5 L364.4,235.1 L365.1,234.8 L365.8,234.5 L366.6,234.2 L367.3,233.9 L368.0,233.6 L368.8,233.3 L369.5,233.1 L370.2,232.8 L371.0,232.5 L371.7,232.3 L372.4,232.0 L373.2,231.8 L373.9,231.6 L374.6,231.3 L375.4,231.1 L376.1,230.9 L376.8,230.7 L377.6,230.5 L378.3,230.3 L379.0,230.1 L379.8,229.9 L380.5,229.7 L381.2,229.6 L382.0,229.4 L382.7,229.3 L383.4,229.1 L384.2,229.0 L384.9,228.8 L385.6,228.7 L386.4,228.6 L387.1,228.5 L387.8,228.4 L388.6,228.3 L389.3,228.2 L390.0,228.1 L390.8,228.1 L391.5,228.0 L392.2,228.0 L393.0,227.9 L393.7,227.9 L394.4,227.8 L395.2,227.8 L395.9,227.8 L396.6,227.8 L397.4,227.8 L398.1,227.8 L398.8,227.8 L399.6,227.8 L400.3,227.9 L401.0,227.9 L401.8,228.0 L402.5,228.0 L403.2,228.1 L404.0,228.1 L404.7,228.2 L405.4,228.3 L406.2,228.4 L406.9,228.5 L407.6,228.6 L408.4,228.7 L409.1,228.8 L409.8,229.0 L410.6,229.1 L411.3,229.3 L412.0,229.4 L412.8,229.6 L413.5,229.7 L414.2,229.9 L415.0,230.1 L415.7,230.3 L416.4,230.5 L417.2,230.7 L417.9,230.9 L418.6,231.1 L419.4,231.3 L420.1,231.6 L420.8,231.8 L421.6,232.0 L422.3,232.3 L423.0,232.5 L423.8,232.8 L424.5,233.1 L425.2,233.3 L426.0,233.6 L426.7,233.9 L427.4,234.2 L428.2,234.5 L428.9,234.8 L429.6,235.1 L430.4,235.5 L431.1,235.8 L431.8,236.1 L432.6,236.4 L433.3,236.8 L434.0,237.1 L434.8,237.5 L435.5,237.8 L436.2,238.2 L437.0,238.6 L437.7,239.0 L438.4,239.3 L439.2,239.7 L439.9,240.1 L440.6,240.5 L441.4,240.9 L442.1,241.3 L442.8,241.7 L443.6,242.1 L444.3,242.5 L445.0,242.9 L445.8,243.4 L446.5,243.8 L447.2,244.2 L448.0,244.7 L448.7,245.1 L449.4,245.5 L450.2,246.0 L450.9,246.4 L451.6,246.9 L452.4,247.3 L453.1,247.8 L453.8,248.2 L454.6,248.7 L455.3,249.2 L456.0,249.6 L456.8,250.1 L457.5,250.6 L458.2,251.1 L459.0,251.5 L459.7,252.0 L460.4,252.5 L461.2,253.0 L461.9,253.4 L462.6,253.9 L463.4,254.4 L464.1,254.9 L464.8,255.4 L465.6,255.9 L466.3,256.4 L467.0,256.9 L467.8,257.3 L468.5,257.8 L469.2,258.3 L470.0,258.8 L470.7,259.3 L471.4,259.8 L472.2,260.3 L472.9,260.8 L473.6,261.3 L474.4,261.8 L475.1,262.2 L475.8,262.7 L476.6,263.2 L477.3,263.7 L478.0,264.2 L478.8,264.7 L479.5,265.2 L480.2,265.6 L481.0,266.1 L481.7,266.6 L482.4,267.1 L483.2,267.5 L483.9,268.0 L484.6,268.5 L485.4,268.9 L486.1,269.4 L486.8,269.9 L487.6,270.3 L488.3,270.8 L489.0,271.2 L489.8,271.7 L490.5,272.1 L491.2,272.6 L492.0,273.0 L492.7,273.5 L493.4,273.9 L494.2,274.3 L494.9,274.7 L495.6,275.2 L496.4,275.6 L497.1,276.0 L497.8,276.4 L498.6,276.8 L499.3,277.2 L500.0,277.6 L500.8,278.0 L501.5,278.4 L502.2,278.8 L503.0,279.1 L503.7,279.5 L504.4,279.9 L505.2,280.2 L505.9,280.6 L506.6,281.0 L507.4,281.3 L508.1,281.6 L508.8,282.0 L509.6,282.3 L510.3,282.6 L511.0,282.9 L511.8,283.3 L512.5,283.6 L513.2,283.9 L514.0,284.2 L514.7,284.4 L515.4,284.7 L516.2,285.0 L516.9,285.3 L517.6,285.5 L518.4,285.8 L519.1,286.0 L519.8,286.3 L520.6,286.5 L521.3,286.7 L522.0,287.0 L522.8,287.2 L523.5,287.4 L524.2,287.6 L525.0,287.8 L525.7,288.0 L526.4,288.1 L527.2,288.3 L527.9,288.5 L528.6,288.6 L529.4,288.8 L530.1,288.9 L530.8,289.1 L531.6,289.2 L532.3,289.3 L533.0,289.4 L533.8,289.5 L534.5,289.6 L535.2,289.7 L536.0,289.8 L536.7,289.9 L537.4,289.9 L538.2,290.0 L538.9,290.0 L539.6,290.1 L540.4,290.1 L541.1,290.2 L541.8,290.2 L542.6,290.2 L543.3,290.2 L544.1,290.2 L544.8,290.2 L545.5,290.2 L546.3,290.1 L547.0,290.1 L547.7,290.1 L548.5,290.0 L549.2,290.0 L549.9,289.9 L550.7,289.8 L551.4,289.8 L552.1,289.7 L552.9,289.6 L553.6,289.5 L554.3,289.4 L555.1,289.2 L555.8,289.1 L556.5,289.0 L557.3,288.9 L558.0,288.7 L558.7,288.6 L559.5,288.4 L560.2,288.2 L560.9,288.0 L561.7,287.9 L562.4,287.7 L563.1,287.5 L563.9,287.3 L564.6,287.1 L565.3,286.8 L566.1,286.6 L566.8,286.4 L567.5,286.2 L568.3,285.9 L569.0,285.7 L569.7,285.4 L570.5,285.1 L571.2,284.9 L571.9,284.6 L572.7,284.3 L573.4,284.0 L574.1,283.7 L574.9,283.4 L575.6,283.1 L576.3,282.8 L577.1,282.5 L577.8,282.1 L578.5,281.8 L579.3,281.5 L580.0,281.1 L580.7,280.8 L581.5,280.4 L582.2,280.1 L582.9,279.7 L583.7,279.3 L584.4,279.0 L585.1,278.6 L585.9,278.2 L586.6,277.8 L587.3,277.4 L588.1,277.0 L588.8,276.6 L589.5,276.2 L590.3,275.8 L591.0,275.4 L591.7,275.0 L592.5,274.5 L593.2,274.1 L593.9,273.7 L594.7,273.2 L595.4,272.8 L596.1,272.4 L596.9,271.9 L597.6,271.5 L598.3,271.0 L599.1,270.6 L599.8,270.1 L600.5,269.6 L601.3,269.2 L602.0,268.7 L602.7,268.2 L603.5,267.8 L604.2,267.3 L604.9,266.8 L605.7,266.4 L606.4,265.9 L607.1,265.4 L607.9,264.9 L608.6,264.4 L609.3,263.9 L610.1,263.5 L610.8,263.0 L611.5,262.5 L612.3,262.0 L613.0,261.5 L613.7,261.0 L614.5,260.5 L615.2,260.0 L615.9,259.6 L616.7,259.1 L617.4,258.6 L618.1,258.1 L618.9,257.6 L619.6,257.1 L620.3,256.6 L621.1,256.1 L621.8,255.6 L622.5,255.1 L623.3,254.7 L624.0,254.2 L624.7,253.7 L625.5,253.2 L626.2,252.7 L626.9,252.2 L627.7,251.8 L628.4,251.3 L629.1,250.8 L629.9,250.3 L630.6,249.9 L631.3,249.4 L632.1,248.9 L632.8,248.5 L633.5,248.0 L634.3,247.6 L635.0,247.1 L635.7,246.7 L636.5,246.2 L637.2,245.8 L637.9,245.3 L638.7,244.9 L639.4,244.4 L640.1,244.0 L640.9,243.6 L641.6,243.2 L642.3,242.7 L643.1,242.3 L643.8,241.9 L644.5,241.5 L645.3,241.1 L646.0,240.7 L646.7,240.3 L647.5,239.9 L648.2,239.5 L648.9,239.1 L649.7,238.8 L650.4,238.4 L651.1,238.0 L651.9,237.7 L652.6,237.3 L653.3,237.0 L654.1,236.6 L654.8,236.3 L655.5,235.9 L656.3,235.6 L657.0,235.3 L657.7,235.0 L658.5,234.7 L659.2,234.4 L659.9,234.1 L660.7,233.8 L661.4,233.5 L662.1,233.2 L662.9,232.9 L663.6,232.7 L664.3,232.4 L665.1,232.2 L665.8,231.9 L666.5,231.7 L667.3,231.4 L668.0,231.2 L668.7,231.0 L669.5,230.8 L670.2,230.6 L670.9,230.4 L671.7,230.2 L672.4,230.0 L673.1,229.8 L673.9,229.6 L674.6,229.5 L675.3,229.3 L676.1,229.2 L676.8,229.0 L677.5,228.9 L678.3,228.8 L679.0,228.7 L679.7,228.6 L680.5,228.4 L681.2,228.4 L681.9,228.3 L682.7,228.2 L683.4,228.1 L684.1,228.0 L684.9,228.0 L685.6,227.9 L686.3,227.9 L687.1,227.9 L687.8,227.8 L688.5,227.8 L689.3,227.8 L690.0,227.8" fill="none" stroke="#2b6cb0" stroke-width="2"/>
  <line x1="708" y1="234" x2="730" y2="234" stroke="#b7791f" stroke-width="2"/>
  <text class="lg" x="736" y="238" fill="#b7791f">i_alpha</text>
  <line x1="708" y1="252" x2="730" y2="252" stroke="#2b6cb0" stroke-width="2"/>
  <text class="lg" x="736" y="256" fill="#2b6cb0">i_beta</text>
  <text class="ts" x="104" y="316">仍是正弦，但化为正交的两相</text>
  <text class="hd" x="104" y="340">Park 变换后  i_d, i_q</text>
  <line class="ax" x1="104" y1="389.0" x2="690" y2="389.0"/>
  <line class="ax" x1="104" y1="428" x2="104" y2="350"/>
  <text class="tk" x="96" y="354.0">+5</text>
  <text class="tk" x="96" y="432">-5</text>
  <line class="gd" x1="104.0" y1="428" x2="104.0" y2="350"/>
  <line class="gd" x1="250.5" y1="428" x2="250.5" y2="350"/>
  <line class="gd" x1="397.0" y1="428" x2="397.0" y2="350"/>
  <line class="gd" x1="543.5" y1="428" x2="543.5" y2="350"/>
  <line class="gd" x1="690.0" y1="428" x2="690.0" y2="350"/>
  <path d="M104.0,389.0 L104.7,389.0 L105.5,389.0 L106.2,389.0 L106.9,389.0 L107.7,389.0 L108.4,389.0 L109.1,389.0 L109.9,389.0 L110.6,389.0 L111.3,389.0 L112.1,389.0 L112.8,389.0 L113.5,389.0 L114.3,389.0 L115.0,389.0 L115.7,389.0 L116.5,389.0 L117.2,389.0 L117.9,389.0 L118.7,389.0 L119.4,389.0 L120.1,389.0 L120.9,389.0 L121.6,389.0 L122.3,389.0 L123.1,389.0 L123.8,389.0 L124.5,389.0 L125.3,389.0 L126.0,389.0 L126.7,389.0 L127.5,389.0 L128.2,389.0 L128.9,389.0 L129.7,389.0 L130.4,389.0 L131.1,389.0 L131.9,389.0 L132.6,389.0 L133.3,389.0 L134.1,389.0 L134.8,389.0 L135.5,389.0 L136.3,389.0 L137.0,389.0 L137.7,389.0 L138.5,389.0 L139.2,389.0 L139.9,389.0 L140.7,389.0 L141.4,389.0 L142.1,389.0 L142.9,389.0 L143.6,389.0 L144.3,389.0 L145.1,389.0 L145.8,389.0 L146.5,389.0 L147.3,389.0 L148.0,389.0 L148.7,389.0 L149.5,389.0 L150.2,389.0 L150.9,389.0 L151.7,389.0 L152.4,389.0 L153.1,389.0 L153.9,389.0 L154.6,389.0 L155.3,389.0 L156.1,389.0 L156.8,389.0 L157.5,389.0 L158.3,389.0 L159.0,389.0 L159.7,389.0 L160.5,389.0 L161.2,389.0 L161.9,389.0 L162.7,389.0 L163.4,389.0 L164.1,389.0 L164.9,389.0 L165.6,389.0 L166.3,389.0 L167.1,389.0 L167.8,389.0 L168.5,389.0 L169.3,389.0 L170.0,389.0 L170.7,389.0 L171.5,389.0 L172.2,389.0 L172.9,389.0 L173.7,389.0 L174.4,389.0 L175.1,389.0 L175.9,389.0 L176.6,389.0 L177.3,389.0 L178.1,389.0 L178.8,389.0 L179.5,389.0 L180.3,389.0 L181.0,389.0 L181.7,389.0 L182.5,389.0 L183.2,389.0 L183.9,389.0 L184.7,389.0 L185.4,389.0 L186.1,389.0 L186.9,389.0 L187.6,389.0 L188.3,389.0 L189.1,389.0 L189.8,389.0 L190.5,389.0 L191.3,389.0 L192.0,389.0 L192.7,389.0 L193.5,389.0 L194.2,389.0 L194.9,389.0 L195.7,389.0 L196.4,389.0 L197.1,389.0 L197.9,389.0 L198.6,389.0 L199.3,389.0 L200.1,389.0 L200.8,389.0 L201.5,389.0 L202.3,389.0 L203.0,389.0 L203.7,389.0 L204.5,389.0 L205.2,389.0 L205.9,389.0 L206.7,389.0 L207.4,389.0 L208.1,389.0 L208.9,389.0 L209.6,389.0 L210.3,389.0 L211.1,389.0 L211.8,389.0 L212.5,389.0 L213.3,389.0 L214.0,389.0 L214.7,389.0 L215.5,389.0 L216.2,389.0 L216.9,389.0 L217.7,389.0 L218.4,389.0 L219.1,389.0 L219.9,389.0 L220.6,389.0 L221.3,389.0 L222.1,389.0 L222.8,389.0 L223.5,389.0 L224.3,389.0 L225.0,389.0 L225.7,389.0 L226.5,389.0 L227.2,389.0 L227.9,389.0 L228.7,389.0 L229.4,389.0 L230.1,389.0 L230.9,389.0 L231.6,389.0 L232.3,389.0 L233.1,389.0 L233.8,389.0 L234.5,389.0 L235.3,389.0 L236.0,389.0 L236.7,389.0 L237.5,389.0 L238.2,389.0 L238.9,389.0 L239.7,389.0 L240.4,389.0 L241.1,389.0 L241.9,389.0 L242.6,389.0 L243.3,389.0 L244.1,389.0 L244.8,389.0 L245.5,389.0 L246.3,389.0 L247.0,389.0 L247.7,389.0 L248.5,389.0 L249.2,389.0 L249.9,389.0 L250.7,389.0 L251.4,389.0 L252.2,389.0 L252.9,389.0 L253.6,389.0 L254.4,389.0 L255.1,389.0 L255.8,389.0 L256.6,389.0 L257.3,389.0 L258.0,389.0 L258.8,389.0 L259.5,389.0 L260.2,389.0 L261.0,389.0 L261.7,389.0 L262.4,389.0 L263.2,389.0 L263.9,389.0 L264.6,389.0 L265.4,389.0 L266.1,389.0 L266.8,389.0 L267.6,389.0 L268.3,389.0 L269.0,389.0 L269.8,389.0 L270.5,389.0 L271.2,389.0 L272.0,389.0 L272.7,389.0 L273.4,389.0 L274.2,389.0 L274.9,389.0 L275.6,389.0 L276.4,389.0 L277.1,389.0 L277.8,389.0 L278.6,389.0 L279.3,389.0 L280.0,389.0 L280.8,389.0 L281.5,389.0 L282.2,389.0 L283.0,389.0 L283.7,389.0 L284.4,389.0 L285.2,389.0 L285.9,389.0 L286.6,389.0 L287.4,389.0 L288.1,389.0 L288.8,389.0 L289.6,389.0 L290.3,389.0 L291.0,389.0 L291.8,389.0 L292.5,389.0 L293.2,389.0 L294.0,389.0 L294.7,389.0 L295.4,389.0 L296.2,389.0 L296.9,389.0 L297.6,389.0 L298.4,389.0 L299.1,389.0 L299.8,389.0 L300.6,389.0 L301.3,389.0 L302.0,389.0 L302.8,389.0 L303.5,389.0 L304.2,389.0 L305.0,389.0 L305.7,389.0 L306.4,389.0 L307.2,389.0 L307.9,389.0 L308.6,389.0 L309.4,389.0 L310.1,389.0 L310.8,389.0 L311.6,389.0 L312.3,389.0 L313.0,389.0 L313.8,389.0 L314.5,389.0 L315.2,389.0 L316.0,389.0 L316.7,389.0 L317.4,389.0 L318.2,389.0 L318.9,389.0 L319.6,389.0 L320.4,389.0 L321.1,389.0 L321.8,389.0 L322.6,389.0 L323.3,389.0 L324.0,389.0 L324.8,389.0 L325.5,389.0 L326.2,389.0 L327.0,389.0 L327.7,389.0 L328.4,389.0 L329.2,389.0 L329.9,389.0 L330.6,389.0 L331.4,389.0 L332.1,389.0 L332.8,389.0 L333.6,389.0 L334.3,389.0 L335.0,389.0 L335.8,389.0 L336.5,389.0 L337.2,389.0 L338.0,389.0 L338.7,389.0 L339.4,389.0 L340.2,389.0 L340.9,389.0 L341.6,389.0 L342.4,389.0 L343.1,389.0 L343.8,389.0 L344.6,389.0 L345.3,389.0 L346.0,389.0 L346.8,389.0 L347.5,389.0 L348.2,389.0 L349.0,389.0 L349.7,389.0 L350.4,389.0 L351.2,389.0 L351.9,389.0 L352.6,389.0 L353.4,389.0 L354.1,389.0 L354.8,389.0 L355.6,389.0 L356.3,389.0 L357.0,389.0 L357.8,389.0 L358.5,389.0 L359.2,389.0 L360.0,389.0 L360.7,389.0 L361.4,389.0 L362.2,389.0 L362.9,389.0 L363.6,389.0 L364.4,389.0 L365.1,389.0 L365.8,389.0 L366.6,389.0 L367.3,389.0 L368.0,389.0 L368.8,389.0 L369.5,389.0 L370.2,389.0 L371.0,389.0 L371.7,389.0 L372.4,389.0 L373.2,389.0 L373.9,389.0 L374.6,389.0 L375.4,389.0 L376.1,389.0 L376.8,389.0 L377.6,389.0 L378.3,389.0 L379.0,389.0 L379.8,389.0 L380.5,389.0 L381.2,389.0 L382.0,389.0 L382.7,389.0 L383.4,389.0 L384.2,389.0 L384.9,389.0 L385.6,389.0 L386.4,389.0 L387.1,389.0 L387.8,389.0 L388.6,389.0 L389.3,389.0 L390.0,389.0 L390.8,389.0 L391.5,389.0 L392.2,389.0 L393.0,389.0 L393.7,389.0 L394.4,389.0 L395.2,389.0 L395.9,389.0 L396.6,389.0 L397.4,389.0 L398.1,389.0 L398.8,389.0 L399.6,389.0 L400.3,389.0 L401.0,389.0 L401.8,389.0 L402.5,389.0 L403.2,389.0 L404.0,389.0 L404.7,389.0 L405.4,389.0 L406.2,389.0 L406.9,389.0 L407.6,389.0 L408.4,389.0 L409.1,389.0 L409.8,389.0 L410.6,389.0 L411.3,389.0 L412.0,389.0 L412.8,389.0 L413.5,389.0 L414.2,389.0 L415.0,389.0 L415.7,389.0 L416.4,389.0 L417.2,389.0 L417.9,389.0 L418.6,389.0 L419.4,389.0 L420.1,389.0 L420.8,389.0 L421.6,389.0 L422.3,389.0 L423.0,389.0 L423.8,389.0 L424.5,389.0 L425.2,389.0 L426.0,389.0 L426.7,389.0 L427.4,389.0 L428.2,389.0 L428.9,389.0 L429.6,389.0 L430.4,389.0 L431.1,389.0 L431.8,389.0 L432.6,389.0 L433.3,389.0 L434.0,389.0 L434.8,389.0 L435.5,389.0 L436.2,389.0 L437.0,389.0 L437.7,389.0 L438.4,389.0 L439.2,389.0 L439.9,389.0 L440.6,389.0 L441.4,389.0 L442.1,389.0 L442.8,389.0 L443.6,389.0 L444.3,389.0 L445.0,389.0 L445.8,389.0 L446.5,389.0 L447.2,389.0 L448.0,389.0 L448.7,389.0 L449.4,389.0 L450.2,389.0 L450.9,389.0 L451.6,389.0 L452.4,389.0 L453.1,389.0 L453.8,389.0 L454.6,389.0 L455.3,389.0 L456.0,389.0 L456.8,389.0 L457.5,389.0 L458.2,389.0 L459.0,389.0 L459.7,389.0 L460.4,389.0 L461.2,389.0 L461.9,389.0 L462.6,389.0 L463.4,389.0 L464.1,389.0 L464.8,389.0 L465.6,389.0 L466.3,389.0 L467.0,389.0 L467.8,389.0 L468.5,389.0 L469.2,389.0 L470.0,389.0 L470.7,389.0 L471.4,389.0 L472.2,389.0 L472.9,389.0 L473.6,389.0 L474.4,389.0 L475.1,389.0 L475.8,389.0 L476.6,389.0 L477.3,389.0 L478.0,389.0 L478.8,389.0 L479.5,389.0 L480.2,389.0 L481.0,389.0 L481.7,389.0 L482.4,389.0 L483.2,389.0 L483.9,389.0 L484.6,389.0 L485.4,389.0 L486.1,389.0 L486.8,389.0 L487.6,389.0 L488.3,389.0 L489.0,389.0 L489.8,389.0 L490.5,389.0 L491.2,389.0 L492.0,389.0 L492.7,389.0 L493.4,389.0 L494.2,389.0 L494.9,389.0 L495.6,389.0 L496.4,389.0 L497.1,389.0 L497.8,389.0 L498.6,389.0 L499.3,389.0 L500.0,389.0 L500.8,389.0 L501.5,389.0 L502.2,389.0 L503.0,389.0 L503.7,389.0 L504.4,389.0 L505.2,389.0 L505.9,389.0 L506.6,389.0 L507.4,389.0 L508.1,389.0 L508.8,389.0 L509.6,389.0 L510.3,389.0 L511.0,389.0 L511.8,389.0 L512.5,389.0 L513.2,389.0 L514.0,389.0 L514.7,389.0 L515.4,389.0 L516.2,389.0 L516.9,389.0 L517.6,389.0 L518.4,389.0 L519.1,389.0 L519.8,389.0 L520.6,389.0 L521.3,389.0 L522.0,389.0 L522.8,389.0 L523.5,389.0 L524.2,389.0 L525.0,389.0 L525.7,389.0 L526.4,389.0 L527.2,389.0 L527.9,389.0 L528.6,389.0 L529.4,389.0 L530.1,389.0 L530.8,389.0 L531.6,389.0 L532.3,389.0 L533.0,389.0 L533.8,389.0 L534.5,389.0 L535.2,389.0 L536.0,389.0 L536.7,389.0 L537.4,389.0 L538.2,389.0 L538.9,389.0 L539.6,389.0 L540.4,389.0 L541.1,389.0 L541.8,389.0 L542.6,389.0 L543.3,389.0 L544.1,389.0 L544.8,389.0 L545.5,389.0 L546.3,389.0 L547.0,389.0 L547.7,389.0 L548.5,389.0 L549.2,389.0 L549.9,389.0 L550.7,389.0 L551.4,389.0 L552.1,389.0 L552.9,389.0 L553.6,389.0 L554.3,389.0 L555.1,389.0 L555.8,389.0 L556.5,389.0 L557.3,389.0 L558.0,389.0 L558.7,389.0 L559.5,389.0 L560.2,389.0 L560.9,389.0 L561.7,389.0 L562.4,389.0 L563.1,389.0 L563.9,389.0 L564.6,389.0 L565.3,389.0 L566.1,389.0 L566.8,389.0 L567.5,389.0 L568.3,389.0 L569.0,389.0 L569.7,389.0 L570.5,389.0 L571.2,389.0 L571.9,389.0 L572.7,389.0 L573.4,389.0 L574.1,389.0 L574.9,389.0 L575.6,389.0 L576.3,389.0 L577.1,389.0 L577.8,389.0 L578.5,389.0 L579.3,389.0 L580.0,389.0 L580.7,389.0 L581.5,389.0 L582.2,389.0 L582.9,389.0 L583.7,389.0 L584.4,389.0 L585.1,389.0 L585.9,389.0 L586.6,389.0 L587.3,389.0 L588.1,389.0 L588.8,389.0 L589.5,389.0 L590.3,389.0 L591.0,389.0 L591.7,389.0 L592.5,389.0 L593.2,389.0 L593.9,389.0 L594.7,389.0 L595.4,389.0 L596.1,389.0 L596.9,389.0 L597.6,389.0 L598.3,389.0 L599.1,389.0 L599.8,389.0 L600.5,389.0 L601.3,389.0 L602.0,389.0 L602.7,389.0 L603.5,389.0 L604.2,389.0 L604.9,389.0 L605.7,389.0 L606.4,389.0 L607.1,389.0 L607.9,389.0 L608.6,389.0 L609.3,389.0 L610.1,389.0 L610.8,389.0 L611.5,389.0 L612.3,389.0 L613.0,389.0 L613.7,389.0 L614.5,389.0 L615.2,389.0 L615.9,389.0 L616.7,389.0 L617.4,389.0 L618.1,389.0 L618.9,389.0 L619.6,389.0 L620.3,389.0 L621.1,389.0 L621.8,389.0 L622.5,389.0 L623.3,389.0 L624.0,389.0 L624.7,389.0 L625.5,389.0 L626.2,389.0 L626.9,389.0 L627.7,389.0 L628.4,389.0 L629.1,389.0 L629.9,389.0 L630.6,389.0 L631.3,389.0 L632.1,389.0 L632.8,389.0 L633.5,389.0 L634.3,389.0 L635.0,389.0 L635.7,389.0 L636.5,389.0 L637.2,389.0 L637.9,389.0 L638.7,389.0 L639.4,389.0 L640.1,389.0 L640.9,389.0 L641.6,389.0 L642.3,389.0 L643.1,389.0 L643.8,389.0 L644.5,389.0 L645.3,389.0 L646.0,389.0 L646.7,389.0 L647.5,389.0 L648.2,389.0 L648.9,389.0 L649.7,389.0 L650.4,389.0 L651.1,389.0 L651.9,389.0 L652.6,389.0 L653.3,389.0 L654.1,389.0 L654.8,389.0 L655.5,389.0 L656.3,389.0 L657.0,389.0 L657.7,389.0 L658.5,389.0 L659.2,389.0 L659.9,389.0 L660.7,389.0 L661.4,389.0 L662.1,389.0 L662.9,389.0 L663.6,389.0 L664.3,389.0 L665.1,389.0 L665.8,389.0 L666.5,389.0 L667.3,389.0 L668.0,389.0 L668.7,389.0 L669.5,389.0 L670.2,389.0 L670.9,389.0 L671.7,389.0 L672.4,389.0 L673.1,389.0 L673.9,389.0 L674.6,389.0 L675.3,389.0 L676.1,389.0 L676.8,389.0 L677.5,389.0 L678.3,389.0 L679.0,389.0 L679.7,389.0 L680.5,389.0 L681.2,389.0 L681.9,389.0 L682.7,389.0 L683.4,389.0 L684.1,389.0 L684.9,389.0 L685.6,389.0 L686.3,389.0 L687.1,389.0 L687.8,389.0 L688.5,389.0 L689.3,389.0 L690.0,389.0" fill="none" stroke="#7b8794" stroke-width="2"/>
  <path d="M104.0,357.8 L104.7,357.8 L105.5,357.8 L106.2,357.8 L106.9,357.8 L107.7,357.8 L108.4,357.8 L109.1,357.8 L109.9,357.8 L110.6,357.8 L111.3,357.8 L112.1,357.8 L112.8,357.8 L113.5,357.8 L114.3,357.8 L115.0,357.8 L115.7,357.8 L116.5,357.8 L117.2,357.8 L117.9,357.8 L118.7,357.8 L119.4,357.8 L120.1,357.8 L120.9,357.8 L121.6,357.8 L122.3,357.8 L123.1,357.8 L123.8,357.8 L124.5,357.8 L125.3,357.8 L126.0,357.8 L126.7,357.8 L127.5,357.8 L128.2,357.8 L128.9,357.8 L129.7,357.8 L130.4,357.8 L131.1,357.8 L131.9,357.8 L132.6,357.8 L133.3,357.8 L134.1,357.8 L134.8,357.8 L135.5,357.8 L136.3,357.8 L137.0,357.8 L137.7,357.8 L138.5,357.8 L139.2,357.8 L139.9,357.8 L140.7,357.8 L141.4,357.8 L142.1,357.8 L142.9,357.8 L143.6,357.8 L144.3,357.8 L145.1,357.8 L145.8,357.8 L146.5,357.8 L147.3,357.8 L148.0,357.8 L148.7,357.8 L149.5,357.8 L150.2,357.8 L150.9,357.8 L151.7,357.8 L152.4,357.8 L153.1,357.8 L153.9,357.8 L154.6,357.8 L155.3,357.8 L156.1,357.8 L156.8,357.8 L157.5,357.8 L158.3,357.8 L159.0,357.8 L159.7,357.8 L160.5,357.8 L161.2,357.8 L161.9,357.8 L162.7,357.8 L163.4,357.8 L164.1,357.8 L164.9,357.8 L165.6,357.8 L166.3,357.8 L167.1,357.8 L167.8,357.8 L168.5,357.8 L169.3,357.8 L170.0,357.8 L170.7,357.8 L171.5,357.8 L172.2,357.8 L172.9,357.8 L173.7,357.8 L174.4,357.8 L175.1,357.8 L175.9,357.8 L176.6,357.8 L177.3,357.8 L178.1,357.8 L178.8,357.8 L179.5,357.8 L180.3,357.8 L181.0,357.8 L181.7,357.8 L182.5,357.8 L183.2,357.8 L183.9,357.8 L184.7,357.8 L185.4,357.8 L186.1,357.8 L186.9,357.8 L187.6,357.8 L188.3,357.8 L189.1,357.8 L189.8,357.8 L190.5,357.8 L191.3,357.8 L192.0,357.8 L192.7,357.8 L193.5,357.8 L194.2,357.8 L194.9,357.8 L195.7,357.8 L196.4,357.8 L197.1,357.8 L197.9,357.8 L198.6,357.8 L199.3,357.8 L200.1,357.8 L200.8,357.8 L201.5,357.8 L202.3,357.8 L203.0,357.8 L203.7,357.8 L204.5,357.8 L205.2,357.8 L205.9,357.8 L206.7,357.8 L207.4,357.8 L208.1,357.8 L208.9,357.8 L209.6,357.8 L210.3,357.8 L211.1,357.8 L211.8,357.8 L212.5,357.8 L213.3,357.8 L214.0,357.8 L214.7,357.8 L215.5,357.8 L216.2,357.8 L216.9,357.8 L217.7,357.8 L218.4,357.8 L219.1,357.8 L219.9,357.8 L220.6,357.8 L221.3,357.8 L222.1,357.8 L222.8,357.8 L223.5,357.8 L224.3,357.8 L225.0,357.8 L225.7,357.8 L226.5,357.8 L227.2,357.8 L227.9,357.8 L228.7,357.8 L229.4,357.8 L230.1,357.8 L230.9,357.8 L231.6,357.8 L232.3,357.8 L233.1,357.8 L233.8,357.8 L234.5,357.8 L235.3,357.8 L236.0,357.8 L236.7,357.8 L237.5,357.8 L238.2,357.8 L238.9,357.8 L239.7,357.8 L240.4,357.8 L241.1,357.8 L241.9,357.8 L242.6,357.8 L243.3,357.8 L244.1,357.8 L244.8,357.8 L245.5,357.8 L246.3,357.8 L247.0,357.8 L247.7,357.8 L248.5,357.8 L249.2,357.8 L249.9,357.8 L250.7,357.8 L251.4,357.8 L252.2,357.8 L252.9,357.8 L253.6,357.8 L254.4,357.8 L255.1,357.8 L255.8,357.8 L256.6,357.8 L257.3,357.8 L258.0,357.8 L258.8,357.8 L259.5,357.8 L260.2,357.8 L261.0,357.8 L261.7,357.8 L262.4,357.8 L263.2,357.8 L263.9,357.8 L264.6,357.8 L265.4,357.8 L266.1,357.8 L266.8,357.8 L267.6,357.8 L268.3,357.8 L269.0,357.8 L269.8,357.8 L270.5,357.8 L271.2,357.8 L272.0,357.8 L272.7,357.8 L273.4,357.8 L274.2,357.8 L274.9,357.8 L275.6,357.8 L276.4,357.8 L277.1,357.8 L277.8,357.8 L278.6,357.8 L279.3,357.8 L280.0,357.8 L280.8,357.8 L281.5,357.8 L282.2,357.8 L283.0,357.8 L283.7,357.8 L284.4,357.8 L285.2,357.8 L285.9,357.8 L286.6,357.8 L287.4,357.8 L288.1,357.8 L288.8,357.8 L289.6,357.8 L290.3,357.8 L291.0,357.8 L291.8,357.8 L292.5,357.8 L293.2,357.8 L294.0,357.8 L294.7,357.8 L295.4,357.8 L296.2,357.8 L296.9,357.8 L297.6,357.8 L298.4,357.8 L299.1,357.8 L299.8,357.8 L300.6,357.8 L301.3,357.8 L302.0,357.8 L302.8,357.8 L303.5,357.8 L304.2,357.8 L305.0,357.8 L305.7,357.8 L306.4,357.8 L307.2,357.8 L307.9,357.8 L308.6,357.8 L309.4,357.8 L310.1,357.8 L310.8,357.8 L311.6,357.8 L312.3,357.8 L313.0,357.8 L313.8,357.8 L314.5,357.8 L315.2,357.8 L316.0,357.8 L316.7,357.8 L317.4,357.8 L318.2,357.8 L318.9,357.8 L319.6,357.8 L320.4,357.8 L321.1,357.8 L321.8,357.8 L322.6,357.8 L323.3,357.8 L324.0,357.8 L324.8,357.8 L325.5,357.8 L326.2,357.8 L327.0,357.8 L327.7,357.8 L328.4,357.8 L329.2,357.8 L329.9,357.8 L330.6,357.8 L331.4,357.8 L332.1,357.8 L332.8,357.8 L333.6,357.8 L334.3,357.8 L335.0,357.8 L335.8,357.8 L336.5,357.8 L337.2,357.8 L338.0,357.8 L338.7,357.8 L339.4,357.8 L340.2,357.8 L340.9,357.8 L341.6,357.8 L342.4,357.8 L343.1,357.8 L343.8,357.8 L344.6,357.8 L345.3,357.8 L346.0,357.8 L346.8,357.8 L347.5,357.8 L348.2,357.8 L349.0,357.8 L349.7,357.8 L350.4,357.8 L351.2,357.8 L351.9,357.8 L352.6,357.8 L353.4,357.8 L354.1,357.8 L354.8,357.8 L355.6,357.8 L356.3,357.8 L357.0,357.8 L357.8,357.8 L358.5,357.8 L359.2,357.8 L360.0,357.8 L360.7,357.8 L361.4,357.8 L362.2,357.8 L362.9,357.8 L363.6,357.8 L364.4,357.8 L365.1,357.8 L365.8,357.8 L366.6,357.8 L367.3,357.8 L368.0,357.8 L368.8,357.8 L369.5,357.8 L370.2,357.8 L371.0,357.8 L371.7,357.8 L372.4,357.8 L373.2,357.8 L373.9,357.8 L374.6,357.8 L375.4,357.8 L376.1,357.8 L376.8,357.8 L377.6,357.8 L378.3,357.8 L379.0,357.8 L379.8,357.8 L380.5,357.8 L381.2,357.8 L382.0,357.8 L382.7,357.8 L383.4,357.8 L384.2,357.8 L384.9,357.8 L385.6,357.8 L386.4,357.8 L387.1,357.8 L387.8,357.8 L388.6,357.8 L389.3,357.8 L390.0,357.8 L390.8,357.8 L391.5,357.8 L392.2,357.8 L393.0,357.8 L393.7,357.8 L394.4,357.8 L395.2,357.8 L395.9,357.8 L396.6,357.8 L397.4,357.8 L398.1,357.8 L398.8,357.8 L399.6,357.8 L400.3,357.8 L401.0,357.8 L401.8,357.8 L402.5,357.8 L403.2,357.8 L404.0,357.8 L404.7,357.8 L405.4,357.8 L406.2,357.8 L406.9,357.8 L407.6,357.8 L408.4,357.8 L409.1,357.8 L409.8,357.8 L410.6,357.8 L411.3,357.8 L412.0,357.8 L412.8,357.8 L413.5,357.8 L414.2,357.8 L415.0,357.8 L415.7,357.8 L416.4,357.8 L417.2,357.8 L417.9,357.8 L418.6,357.8 L419.4,357.8 L420.1,357.8 L420.8,357.8 L421.6,357.8 L422.3,357.8 L423.0,357.8 L423.8,357.8 L424.5,357.8 L425.2,357.8 L426.0,357.8 L426.7,357.8 L427.4,357.8 L428.2,357.8 L428.9,357.8 L429.6,357.8 L430.4,357.8 L431.1,357.8 L431.8,357.8 L432.6,357.8 L433.3,357.8 L434.0,357.8 L434.8,357.8 L435.5,357.8 L436.2,357.8 L437.0,357.8 L437.7,357.8 L438.4,357.8 L439.2,357.8 L439.9,357.8 L440.6,357.8 L441.4,357.8 L442.1,357.8 L442.8,357.8 L443.6,357.8 L444.3,357.8 L445.0,357.8 L445.8,357.8 L446.5,357.8 L447.2,357.8 L448.0,357.8 L448.7,357.8 L449.4,357.8 L450.2,357.8 L450.9,357.8 L451.6,357.8 L452.4,357.8 L453.1,357.8 L453.8,357.8 L454.6,357.8 L455.3,357.8 L456.0,357.8 L456.8,357.8 L457.5,357.8 L458.2,357.8 L459.0,357.8 L459.7,357.8 L460.4,357.8 L461.2,357.8 L461.9,357.8 L462.6,357.8 L463.4,357.8 L464.1,357.8 L464.8,357.8 L465.6,357.8 L466.3,357.8 L467.0,357.8 L467.8,357.8 L468.5,357.8 L469.2,357.8 L470.0,357.8 L470.7,357.8 L471.4,357.8 L472.2,357.8 L472.9,357.8 L473.6,357.8 L474.4,357.8 L475.1,357.8 L475.8,357.8 L476.6,357.8 L477.3,357.8 L478.0,357.8 L478.8,357.8 L479.5,357.8 L480.2,357.8 L481.0,357.8 L481.7,357.8 L482.4,357.8 L483.2,357.8 L483.9,357.8 L484.6,357.8 L485.4,357.8 L486.1,357.8 L486.8,357.8 L487.6,357.8 L488.3,357.8 L489.0,357.8 L489.8,357.8 L490.5,357.8 L491.2,357.8 L492.0,357.8 L492.7,357.8 L493.4,357.8 L494.2,357.8 L494.9,357.8 L495.6,357.8 L496.4,357.8 L497.1,357.8 L497.8,357.8 L498.6,357.8 L499.3,357.8 L500.0,357.8 L500.8,357.8 L501.5,357.8 L502.2,357.8 L503.0,357.8 L503.7,357.8 L504.4,357.8 L505.2,357.8 L505.9,357.8 L506.6,357.8 L507.4,357.8 L508.1,357.8 L508.8,357.8 L509.6,357.8 L510.3,357.8 L511.0,357.8 L511.8,357.8 L512.5,357.8 L513.2,357.8 L514.0,357.8 L514.7,357.8 L515.4,357.8 L516.2,357.8 L516.9,357.8 L517.6,357.8 L518.4,357.8 L519.1,357.8 L519.8,357.8 L520.6,357.8 L521.3,357.8 L522.0,357.8 L522.8,357.8 L523.5,357.8 L524.2,357.8 L525.0,357.8 L525.7,357.8 L526.4,357.8 L527.2,357.8 L527.9,357.8 L528.6,357.8 L529.4,357.8 L530.1,357.8 L530.8,357.8 L531.6,357.8 L532.3,357.8 L533.0,357.8 L533.8,357.8 L534.5,357.8 L535.2,357.8 L536.0,357.8 L536.7,357.8 L537.4,357.8 L538.2,357.8 L538.9,357.8 L539.6,357.8 L540.4,357.8 L541.1,357.8 L541.8,357.8 L542.6,357.8 L543.3,357.8 L544.1,357.8 L544.8,357.8 L545.5,357.8 L546.3,357.8 L547.0,357.8 L547.7,357.8 L548.5,357.8 L549.2,357.8 L549.9,357.8 L550.7,357.8 L551.4,357.8 L552.1,357.8 L552.9,357.8 L553.6,357.8 L554.3,357.8 L555.1,357.8 L555.8,357.8 L556.5,357.8 L557.3,357.8 L558.0,357.8 L558.7,357.8 L559.5,357.8 L560.2,357.8 L560.9,357.8 L561.7,357.8 L562.4,357.8 L563.1,357.8 L563.9,357.8 L564.6,357.8 L565.3,357.8 L566.1,357.8 L566.8,357.8 L567.5,357.8 L568.3,357.8 L569.0,357.8 L569.7,357.8 L570.5,357.8 L571.2,357.8 L571.9,357.8 L572.7,357.8 L573.4,357.8 L574.1,357.8 L574.9,357.8 L575.6,357.8 L576.3,357.8 L577.1,357.8 L577.8,357.8 L578.5,357.8 L579.3,357.8 L580.0,357.8 L580.7,357.8 L581.5,357.8 L582.2,357.8 L582.9,357.8 L583.7,357.8 L584.4,357.8 L585.1,357.8 L585.9,357.8 L586.6,357.8 L587.3,357.8 L588.1,357.8 L588.8,357.8 L589.5,357.8 L590.3,357.8 L591.0,357.8 L591.7,357.8 L592.5,357.8 L593.2,357.8 L593.9,357.8 L594.7,357.8 L595.4,357.8 L596.1,357.8 L596.9,357.8 L597.6,357.8 L598.3,357.8 L599.1,357.8 L599.8,357.8 L600.5,357.8 L601.3,357.8 L602.0,357.8 L602.7,357.8 L603.5,357.8 L604.2,357.8 L604.9,357.8 L605.7,357.8 L606.4,357.8 L607.1,357.8 L607.9,357.8 L608.6,357.8 L609.3,357.8 L610.1,357.8 L610.8,357.8 L611.5,357.8 L612.3,357.8 L613.0,357.8 L613.7,357.8 L614.5,357.8 L615.2,357.8 L615.9,357.8 L616.7,357.8 L617.4,357.8 L618.1,357.8 L618.9,357.8 L619.6,357.8 L620.3,357.8 L621.1,357.8 L621.8,357.8 L622.5,357.8 L623.3,357.8 L624.0,357.8 L624.7,357.8 L625.5,357.8 L626.2,357.8 L626.9,357.8 L627.7,357.8 L628.4,357.8 L629.1,357.8 L629.9,357.8 L630.6,357.8 L631.3,357.8 L632.1,357.8 L632.8,357.8 L633.5,357.8 L634.3,357.8 L635.0,357.8 L635.7,357.8 L636.5,357.8 L637.2,357.8 L637.9,357.8 L638.7,357.8 L639.4,357.8 L640.1,357.8 L640.9,357.8 L641.6,357.8 L642.3,357.8 L643.1,357.8 L643.8,357.8 L644.5,357.8 L645.3,357.8 L646.0,357.8 L646.7,357.8 L647.5,357.8 L648.2,357.8 L648.9,357.8 L649.7,357.8 L650.4,357.8 L651.1,357.8 L651.9,357.8 L652.6,357.8 L653.3,357.8 L654.1,357.8 L654.8,357.8 L655.5,357.8 L656.3,357.8 L657.0,357.8 L657.7,357.8 L658.5,357.8 L659.2,357.8 L659.9,357.8 L660.7,357.8 L661.4,357.8 L662.1,357.8 L662.9,357.8 L663.6,357.8 L664.3,357.8 L665.1,357.8 L665.8,357.8 L666.5,357.8 L667.3,357.8 L668.0,357.8 L668.7,357.8 L669.5,357.8 L670.2,357.8 L670.9,357.8 L671.7,357.8 L672.4,357.8 L673.1,357.8 L673.9,357.8 L674.6,357.8 L675.3,357.8 L676.1,357.8 L676.8,357.8 L677.5,357.8 L678.3,357.8 L679.0,357.8 L679.7,357.8 L680.5,357.8 L681.2,357.8 L681.9,357.8 L682.7,357.8 L683.4,357.8 L684.1,357.8 L684.9,357.8 L685.6,357.8 L686.3,357.8 L687.1,357.8 L687.8,357.8 L688.5,357.8 L689.3,357.8 L690.0,357.8" fill="none" stroke="#c0392b" stroke-width="2"/>
  <line x1="708" y1="364" x2="730" y2="364" stroke="#7b8794" stroke-width="2"/>
  <text class="lg" x="736" y="368" fill="#7b8794">i_d</text>
  <line x1="708" y1="382" x2="730" y2="382" stroke="#c0392b" stroke-width="2"/>
  <text class="lg" x="736" y="386" fill="#c0392b">i_q</text>
  <text class="ts" x="104" y="446">稳态下变为直流量，可用 PI 无静差跟踪</text>
  <text class="tc" x="104.0" y="462">0π</text>
  <text class="tc" x="250.5" y="462">1π</text>
  <text class="tc" x="397.0" y="462">2π</text>
  <text class="tc" x="543.5" y="462">3π</text>
  <text class="tc" x="690.0" y="462">4π</text>
  <text class="tc" x="397.0" y="482">电角度 theta_e</text>
  <text class="tc" x="440" y="510">图中电流全部落在 q 轴：i_d 恒为 0.0，i_q 恒为 4.0（波动小于 1e-14），转矩正比于 i_q</text>
  <text class="tc" x="440" y="530">这正是 FOC 的全部价值：控制交流电机的转矩，退化成了控制一个直流量</text>
</svg>
